<?xml version="1.0" standalone="no"?>
<!DOCTYPE svg PUBLIC "-//W3C//DTD SVG 20010904//EN"
 "http://www.w3.org/TR/2001/REC-SVG-20010904/DTD/svg10.dtd">
<svg version="1.0" xmlns="http://www.w3.org/2000/svg"
 width="769.000000pt" height="768.000000pt" viewBox="0 0 769.000000 768.000000"
 preserveAspectRatio="xMidYMid meet">

<g transform="translate(0.000000,768.000000) scale(0.100000,-0.100000)"
fill="#000000" stroke="none">
<path d="M5890 7595 c-22 -49 -39 -93 -37 -98 1 -5 22 32 45 83 24 51 41 95
38 98 -3 3 -24 -35 -46 -83z"/>
<path d="M1616 7484 c-4 -11 -14 -15 -31 -12 -14 3 -25 4 -25 2 0 -5 84 -64
92 -64 5 0 6 12 2 28 l-5 27 25 -28 c14 -15 26 -24 26 -20 0 8 -68 83 -75 83
-1 0 -6 -7 -9 -16z"/>
<path d="M4365 7470 c-3 -5 -1 -10 4 -10 6 0 11 5 11 10 0 6 -2 10 -4 10 -3 0
-8 -4 -11 -10z"/>
<path d="M5830 7476 c0 -2 -11 -29 -25 -60 -24 -55 -20 -82 5 -28 32 69 40 92
30 92 -5 0 -10 -2 -10 -4z"/>
<path d="M4367 7413 c-10 -9 -8 -43 2 -43 5 0 9 11 9 25 0 27 -1 28 -11 18z"/>
<path d="M1739 7362 c13 -11 20 -21 15 -24 -5 -3 -4 -3 3 -2 7 2 19 -3 27 -11
8 -8 19 -15 24 -15 10 0 25 -27 27 -46 0 -6 16 -30 35 -52 19 -22 50 -60 67
-84 60 -79 65 -83 38 -33 -15 28 -34 57 -41 66 -8 8 -14 19 -14 24 0 5 -6 16
-14 24 -8 9 -25 36 -38 60 -18 35 -36 51 -88 78 -36 18 -54 25 -41 15z"/>
<path d="M5726 7235 c-9 -26 -7 -32 5 -12 6 10 9 21 6 23 -2 3 -7 -2 -11 -11z"/>
<path d="M5700 7179 c-7 -11 -10 -23 -7 -25 2 -2 9 7 15 21 14 30 7 33 -8 4z"/>
<path d="M5671 7114 c-6 -15 -9 -29 -7 -32 3 -2 10 8 16 23 6 15 9 29 7 31 -2
2 -9 -8 -16 -22z"/>
<path d="M1884 7095 c-10 -8 -14 -15 -8 -15 6 0 17 7 24 15 16 19 9 19 -16 0z"/>
<path d="M2010 7020 c6 -11 13 -20 16 -20 2 0 0 9 -6 20 -6 11 -13 20 -16 20
-2 0 0 -9 6 -20z"/>
<path d="M2043 6964 c20 -40 147 -247 154 -254 8 -7 6 -3 -77 143 -40 70 -77
130 -82 134 -6 3 -3 -8 5 -23z"/>
<path d="M5601 6954 c-6 -15 -9 -29 -7 -32 3 -2 10 8 16 23 6 15 9 29 7 31 -2
2 -9 -8 -16 -22z"/>
<path d="M5556 6851 c-9 -16 -16 -38 -15 -48 0 -10 9 2 20 26 22 50 18 68 -5
22z"/>
<path d="M5520 6769 c0 -5 5 -7 10 -4 6 3 10 8 10 11 0 2 -4 4 -10 4 -5 0 -10
-5 -10 -11z"/>
<path d="M5510 6739 c0 -5 5 -7 10 -4 6 3 10 8 10 11 0 2 -4 4 -10 4 -5 0 -10
-5 -10 -11z"/>
<path d="M2218 6671 c9 -16 18 -28 20 -27 5 6 -21 56 -29 56 -5 0 0 -13 9 -29z"/>
<path d="M5476 6655 c-9 -26 -7 -32 5 -12 6 10 9 21 6 23 -2 3 -7 -2 -11 -11z"/>
<path d="M5441 6568 c-10 -30 -9 -31 4 -14 8 11 15 26 15 33 0 22 -8 14 -19
-19z"/>
<path d="M4370 6570 c0 -5 5 -10 10 -10 6 0 10 5 10 10 0 6 -4 10 -10 10 -5 0
-10 -4 -10 -10z"/>
<path d="M2300 6531 c0 -6 4 -13 10 -16 6 -3 7 1 4 9 -7 18 -14 21 -14 7z"/>
<path d="M5379 6418 c-4 -15 -9 -51 -6 -47 15 16 26 49 17 49 -5 0 -10 -1 -11
-2z"/>
<path d="M4386 6402 c-3 -6 -2 -13 4 -17 6 -4 5 -16 -4 -33 -33 -65 -30 -146
5 -155 23 -6 27 21 4 29 -8 4 -15 14 -15 24 0 10 7 20 15 24 11 4 15 20 15 58
0 54 -12 89 -24 70z"/>
<path d="M2416 6334 c-5 -12 5 -30 31 -58 21 -22 43 -45 48 -51 6 -6 24 -27
41 -47 17 -19 37 -39 45 -43 8 -5 -6 13 -30 40 -24 28 -48 60 -54 73 -6 12
-14 22 -18 22 -5 0 -6 6 -3 13 2 7 -9 25 -24 41 -26 24 -30 25 -36 10z m35
-31 c13 -16 12 -17 -3 -4 -10 7 -18 15 -18 17 0 8 8 3 21 -13z"/>
<path d="M5330 6289 c0 -5 5 -7 10 -4 6 3 10 8 10 11 0 2 -4 4 -10 4 -5 0 -10
-5 -10 -11z"/>
<path d="M4524 6165 c3 -60 5 -116 5 -124 1 -8 4 -11 8 -7 11 10 3 207 -8 226
-5 9 -7 -28 -5 -95z"/>
<path d="M4372 6148 c-6 -24 -9 -72 -6 -107 4 -45 0 -75 -11 -104 -13 -34 -14
-45 -4 -64 8 -14 19 -21 28 -18 9 2 23 0 31 -5 12 -7 10 -11 -9 -18 -16 -6
-20 -11 -13 -16 7 -4 24 2 38 13 l26 21 -27 10 c-14 5 -35 10 -46 10 -18 0
-19 5 -14 37 3 20 13 45 22 56 17 18 17 18 25 -2 9 -26 28 -28 28 -3 -1 29
-27 57 -43 44 -11 -9 -13 7 -12 88 0 55 0 100 -1 100 -1 0 -6 -19 -12 -42z"/>
<path d="M4396 6151 c-4 -7 -5 -15 -2 -18 9 -9 19 4 14 18 -4 11 -6 11 -12 0z"/>
<path d="M5260 6106 c-15 -39 -12 -46 6 -13 9 16 13 31 10 34 -3 3 -10 -6 -16
-21z"/>
<path d="M2600 6115 c0 -4 21 -31 48 -59 190 -206 250 -274 321 -366 76 -98
80 -104 64 -122 -18 -20 -4 -25 16 -5 10 10 11 9 6 -5 -5 -13 0 -20 19 -28 16
-6 24 -15 20 -23 -3 -8 3 -20 13 -27 15 -12 16 -12 6 0 -18 20 -16 35 2 20 8
-7 15 -16 15 -21 0 -4 10 -19 23 -32 43 -45 65 -80 60 -93 -3 -9 2 -14 14 -14
25 0 47 -41 38 -69 -7 -23 4 -27 24 -8 10 8 12 8 7 0 -3 -6 -2 -14 4 -18 5 -3
10 -15 10 -27 0 -12 5 -18 13 -15 17 6 32 -13 32 -43 0 -14 6 -26 13 -26 6 -1
17 -2 22 -3 6 0 10 -8 10 -17 0 -8 4 -13 9 -10 5 4 7 -3 4 -14 -4 -15 0 -20
15 -20 19 0 81 -72 112 -129 7 -14 21 -33 31 -44 15 -17 16 -22 4 -33 -7 -8
-18 -14 -24 -14 -10 0 -61 -61 -61 -73 0 -3 9 -3 20 0 12 3 20 14 21 27 0 14
2 16 6 6 13 -35 24 -40 51 -22 15 9 30 21 34 27 5 6 8 3 8 -6 0 -9 7 -20 16
-23 11 -4 14 -13 11 -28 -3 -12 -1 -30 5 -41 7 -14 7 -17 -1 -13 -15 10 -14
-17 1 -32 20 -20 28 -14 24 18 -2 17 1 33 7 37 5 3 7 1 3 -5 -3 -5 6 -19 21
-31 25 -17 27 -22 15 -40 -10 -18 -10 -21 3 -21 8 0 15 5 15 11 0 5 5 7 11 4
6 -4 8 -13 5 -20 -2 -7 1 -16 8 -18 15 -6 106 -133 106 -147 0 -6 4 -10 9 -10
5 0 13 -10 17 -22 3 -12 15 -31 25 -42 11 -11 17 -27 14 -34 -3 -9 0 -12 9 -9
13 5 53 -42 118 -137 4 -6 10 -7 15 -3 4 5 1 12 -6 16 -10 6 -10 13 -2 28 9
18 7 20 -12 16 -17 -3 -28 6 -50 39 -15 24 -48 70 -72 103 -25 33 -50 71 -57
85 -7 14 -18 28 -24 32 -6 4 -31 38 -57 75 -25 37 -81 117 -125 178 -78 108
-79 110 -63 135 15 23 15 24 -1 12 -10 -8 -22 -11 -28 -7 -13 8 -13 42 0 50 6
4 8 11 4 16 -3 6 -11 5 -21 -2 -12 -10 -16 -10 -24 2 -5 8 -7 19 -4 24 3 6 8
18 11 28 5 12 13 17 26 14 18 -5 18 -4 5 11 -30 35 -29 41 6 39 23 -1 33 -6
30 -14 -3 -7 0 -13 6 -13 6 0 11 5 11 10 0 6 5 10 11 10 8 0 8 -5 -1 -15 -10
-12 -10 -21 0 -45 7 -16 18 -30 26 -30 8 0 11 -6 7 -17 -4 -10 -2 -14 4 -10 7
4 9 0 6 -11 -3 -14 9 -25 49 -47 29 -15 61 -35 71 -43 37 -32 14 6 -32 53 -27
27 -46 55 -44 62 3 7 -1 13 -8 13 -12 0 -12 2 -1 9 11 6 7 15 -17 40 -17 17
-31 37 -31 43 0 6 -8 20 -17 31 -18 20 -18 20 12 1 27 -17 29 -17 16 -1 -10
13 -11 21 -3 29 8 8 7 15 -6 24 -15 12 -15 15 -2 24 11 7 16 5 18 -5 2 -9 7
-13 12 -10 16 10 42 -42 35 -66 -6 -18 -4 -21 9 -16 10 4 16 1 16 -9 0 -28 38
-100 75 -138 31 -33 38 -36 52 -24 16 12 16 11 0 -12 -9 -13 -17 -34 -17 -45
1 -17 3 -16 16 8 16 29 27 37 18 12 -4 -9 4 -25 18 -38 13 -13 23 -28 20 -35
-4 -14 -32 -16 -32 -2 0 6 -5 10 -12 10 -6 0 -4 -7 5 -18 10 -10 14 -22 10
-26 -5 -4 -1 -6 7 -4 9 2 14 -4 14 -14 -1 -12 5 -18 17 -18 18 0 19 2 4 29
-18 35 -7 46 29 30 31 -14 34 -29 6 -24 -25 5 -26 -11 -1 -24 23 -13 37 -43
16 -35 -22 9 -14 -34 9 -54 20 -16 20 -16 7 1 -8 9 -11 20 -8 23 3 3 13 -8 22
-25 8 -17 12 -31 9 -31 -4 0 3 -11 16 -25 14 -15 18 -25 11 -25 -11 0 -11 -3
0 -17 8 -9 12 -17 9 -19 -3 -1 -2 -6 3 -10 4 -4 7 -2 7 4 0 7 7 12 16 12 10 0
13 -6 10 -18 -4 -10 1 -38 9 -62 19 -55 19 -66 -2 -49 -15 13 -15 12 -5 -8 16
-29 15 -33 -4 -33 -29 0 -8 -25 24 -28 36 -4 68 -49 57 -82 -4 -12 2 -26 16
-39 29 -27 15 -27 -18 -1 -15 11 -28 18 -31 15 -8 -8 17 -31 53 -49 l30 -16
-33 0 c-20 0 -35 6 -38 15 -4 8 -11 15 -16 15 -6 0 -7 -7 -4 -16 3 -8 2 -13
-3 -10 -5 3 -14 -1 -21 -9 -10 -12 -16 -13 -27 -4 -24 21 -25 1 -1 -33 12 -18
24 -35 25 -36 1 -2 30 5 65 17 35 11 104 33 153 49 l90 29 3 71 3 72 32 0 c17
0 66 7 108 16 l76 17 34 -24 c18 -13 40 -30 47 -37 12 -11 17 -10 31 2 14 13
22 12 70 -5 51 -18 81 -18 52 0 -7 5 -12 11 -12 15 3 24 -1 29 -13 14 -11 -15
-15 -16 -32 -3 -21 16 -79 21 -69 6 3 -5 1 -12 -3 -15 -12 -7 -52 31 -52 50 0
8 -8 17 -17 21 -10 3 -28 15 -39 25 -20 18 -21 22 -8 46 18 35 18 43 -1 36 -8
-4 -15 -16 -15 -29 0 -28 -25 -52 -34 -33 -6 13 3 -28 11 -47 2 -6 -9 -11 -24
-12 -16 0 -20 1 -10 4 9 2 17 9 17 15 0 15 -53 0 -70 -21 -35 -40 -90 -27 -75
19 5 14 2 20 -9 20 -9 0 -16 -4 -16 -9 0 -5 -6 -11 -13 -14 -9 -3 -14 6 -15
31 -4 45 -12 59 -24 38 -6 -11 -6 -22 2 -32 10 -11 10 -14 -1 -14 -10 0 -10
-3 -1 -12 7 -7 12 -21 12 -31 0 -19 1 -19 28 -2 15 10 22 12 15 5 -8 -8 -9
-20 -3 -36 5 -13 6 -24 1 -24 -5 0 -6 -20 -3 -45 4 -40 2 -45 -15 -45 -10 0
-29 -10 -42 -21 -13 -12 -26 -18 -32 -12 -4 4 -29 89 -54 187 -25 98 -52 196
-60 218 -7 22 -11 47 -8 56 4 9 2 13 -4 9 -7 -4 -21 26 -37 78 -15 47 -42 121
-60 164 -29 69 -32 81 -17 84 12 4 10 5 -5 6 -11 0 -36 20 -55 42 -81 99 -165
161 -332 249 -65 34 -116 64 -113 67 7 7 -109 209 -134 233 -3 3 -31 39 -63
82 -32 42 -68 84 -80 94 -15 13 -14 9 4 -11 15 -17 48 -70 73 -120 26 -49 55
-103 66 -120 45 -70 66 -131 50 -150 -7 -9 -5 -16 5 -25 12 -10 15 -10 15 3 0
9 6 14 13 12 15 -7 16 -81 0 -78 -6 1 -14 -4 -17 -13 -3 -8 -2 -12 4 -9 12 7
14 -18 3 -29 -5 -4 -8 -18 -8 -29 0 -12 -5 -21 -12 -20 -7 2 -10 -4 -7 -12 4
-10 0 -15 -15 -15 -12 0 -21 4 -21 10 0 5 -7 7 -15 3 -10 -3 -25 6 -41 23 -18
21 -26 26 -32 16 -10 -15 -33 12 -217 250 -45 58 -66 100 -40 78 21 -17 30 -6
11 13 -13 13 -14 16 -1 21 8 3 14 0 12 -7 -1 -7 3 -11 10 -10 7 2 10 -4 7 -12
-4 -8 -2 -15 4 -15 5 0 12 7 16 15 9 25 19 18 66 -45 25 -33 50 -60 55 -60 6
0 -1 -8 -15 -16 -14 -8 -17 -13 -8 -10 9 3 21 -1 26 -7 11 -13 10 -67 -2 -85
-4 -7 -2 -12 4 -12 6 0 17 15 25 33 l14 32 1 -27 c0 -16 -4 -28 -10 -28 -16 0
-11 -47 6 -54 24 -9 27 -8 20 11 -4 9 -1 20 6 25 8 5 9 8 2 8 -7 0 -9 11 -6
25 2 14 8 25 13 25 5 0 6 -7 2 -16 -5 -14 -3 -15 15 -5 18 9 20 8 16 -12 -2
-12 -2 -17 2 -10 4 9 11 7 26 -7 11 -10 17 -23 14 -29 -4 -6 -1 -9 6 -6 8 3
15 15 15 28 2 14 -1 17 -6 9 -5 -9 -11 -6 -18 11 -9 18 -8 28 0 37 9 10 8 12
-5 7 -15 -5 -44 17 -49 38 -8 36 -13 44 -25 49 -11 4 -12 1 -4 -13 7 -14 6
-20 -4 -24 -8 -3 -33 16 -60 45 -43 47 -45 51 -29 65 17 13 16 13 -3 4 -18 -8
-24 -5 -43 19 -12 17 -29 30 -38 30 -9 0 -25 8 -35 17 -17 15 -20 15 -47 -11
l-28 -27 -19 27 c-10 14 -24 31 -29 38 -6 6 -35 42 -65 81 -30 38 -124 146
-209 240 -85 93 -156 172 -158 174 -1 2 -3 1 -3 -4z m933 -650 c14 -25 24 -45
21 -45 -11 0 -44 42 -50 65 -9 38 1 30 29 -20z m37 -75 c9 -16 8 -18 -5 -14
-8 4 -15 12 -15 20 0 20 7 17 20 -6z m171 -130 c5 0 9 -5 9 -11 0 -6 -7 -8
-16 -5 -8 3 -24 1 -35 -4 -21 -12 -26 -1 -7 18 7 7 19 10 26 7 8 -3 18 -5 23
-5z m134 -78 c-3 -3 -11 0 -18 7 -9 10 -8 11 6 5 10 -3 15 -9 12 -12z m-257
-36 c-1 -14 -5 -23 -9 -20 -7 4 0 44 7 44 2 0 3 -11 2 -24z m57 14 c-3 -5 -14
-10 -23 -10 -15 0 -15 2 -2 10 20 13 33 13 25 0z m239 -32 c-1 -13 -3 -25 -4
-28 -1 -3 -2 -8 -1 -12 0 -5 -4 -8 -10 -8 -7 0 -9 10 -5 26 5 19 4 24 -6 18
-10 -6 -9 -3 1 9 19 23 28 21 25 -5z m32 -15 c-4 -10 -2 -13 8 -10 8 3 22 -3
31 -13 14 -15 14 -22 4 -38 -10 -17 -10 -25 4 -46 13 -19 14 -26 5 -26 -7 0
-19 9 -26 21 -11 17 -11 25 2 44 19 28 20 35 6 35 -5 0 -12 -11 -16 -25 -3
-14 -10 -22 -16 -19 -5 3 -7 13 -4 21 4 8 1 11 -5 7 -6 -3 -8 -17 -5 -29 3
-13 3 -26 -1 -28 -10 -6 -34 19 -26 27 3 3 0 12 -6 20 -10 12 -8 16 9 21 11 4
20 12 19 18 -3 29 2 48 12 42 6 -4 8 -14 5 -22z m-456 -48 c0 -8 -2 -15 -4
-15 -2 0 -6 7 -10 15 -3 8 -1 15 4 15 6 0 10 -7 10 -15z m56 -27 c-16 -22 -16
-22 -16 -1 0 12 6 23 13 26 19 7 20 0 3 -25z m320 -24 c-3 -8 1 -22 9 -30 17
-17 20 -34 5 -34 -15 0 -32 39 -25 60 4 11 9 20 12 20 3 0 2 -7 -1 -16z m169
6 c-3 -5 -2 -10 4 -10 6 0 8 -7 4 -16 -4 -10 -9 -12 -16 -5 -9 9 -3 41 8 41 4
0 3 -4 0 -10z m-47 -90 c3 -21 2 -22 -11 -11 -13 11 -16 9 -14 -7 1 -14 7 -19
21 -16 18 3 18 2 5 -12 -19 -19 -43 -10 -57 21 -9 20 -8 25 9 30 10 4 16 11
13 17 -4 6 1 8 12 6 11 -2 20 -13 22 -28z m82 -11 c0 -4 -9 -13 -19 -19 -25
-13 -42 -13 -19 1 10 5 15 16 11 24 -4 11 -1 13 11 9 9 -3 16 -10 16 -15z
m-66 -74 c-4 -8 -8 -15 -10 -15 -2 0 -4 7 -4 15 0 8 4 15 10 15 5 0 7 -7 4
-15z m96 -70 c13 -14 18 -25 11 -25 -8 0 -9 -5 -1 -19 15 -29 12 -48 -3 -26
-10 12 -16 14 -21 7 -12 -19 -23 -14 -36 17 -9 22 -9 34 0 50 14 27 21 26 50
-4z m-420 -35 c0 -5 -5 -10 -11 -10 -5 0 -7 5 -4 10 3 6 8 10 11 10 2 0 4 -4
4 -10z m495 -288 c11 -35 11 -41 0 -32 -12 10 -36 86 -34 112 0 15 16 -20 34
-80z m17 53 c6 -28 -6 -34 -16 -9 -8 22 -7 34 3 34 5 0 11 -11 13 -25z m14
-44 c-4 -5 -1 -11 6 -13 7 -3 8 -10 3 -17 -6 -11 -10 -10 -17 3 -8 15 -4 36 8
36 3 0 3 -4 0 -9z m-36 -62 c0 -6 -4 -7 -10 -4 -5 3 -10 11 -10 16 0 6 5 7 10
4 6 -3 10 -11 10 -16z m90 -9 c0 -5 -9 -14 -20 -20 -14 -7 -20 -7 -20 0 0 5 7
10 15 10 8 0 15 5 15 10 0 6 2 10 5 10 3 0 5 -4 5 -10z m150 -174 c0 -2 -7 -7
-16 -10 -8 -3 -12 -2 -9 4 6 10 25 14 25 6z"/>
<path d="M4436 6071 c-4 -6 -13 -8 -21 -4 -21 8 -19 -20 4 -45 20 -24 56 -30
48 -9 -2 6 -11 11 -21 9 -19 -3 -21 19 -4 36 6 6 9 14 6 17 -3 4 -9 2 -12 -4z"/>
<path d="M4470 6072 c0 -4 9 -13 20 -20 22 -13 27 -3 8 16 -14 14 -28 16 -28
4z"/>
<path d="M4549 6033 c-7 -37 -3 -63 7 -59 8 3 10 -3 6 -16 -3 -13 -1 -19 5
-15 9 6 10 23 4 85 -1 13 -20 17 -22 5z"/>
<path d="M4599 5941 c-1 -34 -2 -66 -3 -73 -1 -6 4 -13 11 -15 9 -3 12 16 11
67 -1 87 -17 105 -19 21z"/>
<path d="M5196 5945 c-3 -8 -1 -15 4 -15 6 0 10 7 10 15 0 8 -2 15 -4 15 -2 0
-6 -7 -10 -15z"/>
<path d="M4520 5921 c0 -12 5 -21 10 -21 6 0 10 6 10 14 0 8 -4 18 -10 21 -5
3 -10 -3 -10 -14z"/>
<path d="M5185 5910 c-3 -5 -1 -10 4 -10 6 0 11 5 11 10 0 6 -2 10 -4 10 -3 0
-8 -4 -11 -10z"/>
<path d="M4460 5870 c-12 -7 -10 -9 7 -7 12 0 19 5 17 9 -6 10 -6 10 -24 -2z"/>
<path d="M5166 5853 c-6 -14 -5 -15 5 -6 7 7 10 15 7 18 -3 3 -9 -2 -12 -12z"/>
<path d="M4603 5832 c-6 -4 -12 -30 -14 -57 -3 -65 -7 -75 -35 -86 -13 -4 -24
-13 -24 -19 0 -7 6 -8 19 0 27 14 36 13 22 -4 -6 -7 -8 -21 -5 -31 6 -15 4
-16 -14 -6 -12 7 -22 8 -22 2 0 -5 7 -12 15 -15 12 -4 14 -10 5 -25 -12 -24
-13 -31 -1 -31 12 0 27 42 45 120 15 68 29 160 24 160 -2 0 -8 -4 -15 -8z"/>
<path d="M5151 5823 c-1 -6 -4 -20 -7 -30 -5 -17 -5 -17 6 0 6 10 9 23 6 30
-3 9 -5 9 -5 0z"/>
<path d="M4405 5800 c-12 -19 -14 -69 -3 -76 15 -10 28 16 25 53 -2 33 -10 42
-22 23z"/>
<path d="M5121 5746 c-6 -16 -10 -34 -8 -40 3 -6 10 2 16 18 6 16 10 34 8 40
-3 6 -10 -2 -16 -18z"/>
<path d="M4402 5638 c-1 -78 -3 -96 -15 -115 -5 -7 -5 -18 -1 -25 4 -7 3 -8
-4 -4 -7 4 -12 3 -12 -2 0 -6 -10 -8 -22 -4 -17 4 -20 2 -15 -11 3 -9 2 -19
-3 -22 -13 -8 -8 -43 6 -38 16 6 54 -32 54 -53 0 -8 4 -13 9 -10 4 3 6 17 3
31 -2 14 0 25 7 25 5 0 8 -6 5 -14 -8 -20 19 -26 41 -9 18 13 18 15 4 26 -24
18 -31 73 -14 114 18 42 18 43 4 43 -5 0 -7 -5 -3 -12 4 -7 3 -8 -4 -4 -7 4
-12 16 -12 27 0 10 -5 19 -10 19 -7 0 -7 6 0 19 14 27 13 58 -2 64 -10 4 -10
6 0 6 17 1 15 21 -2 21 -10 0 -14 -18 -14 -72z m-22 -207 c0 -4 -11 -6 -25 -3
-14 2 -25 6 -25 8 0 2 11 4 25 4 14 0 25 -4 25 -9z"/>
<path d="M5100 5690 c-1 -3 -3 -16 -6 -30 -3 -21 -2 -22 7 -7 6 10 8 23 5 30
-2 7 -5 10 -6 7z"/>
<path d="M3070 5655 c-16 -9 -19 -14 -9 -15 8 0 24 7 35 15 24 18 7 19 -26 0z"/>
<path d="M4460 5650 c0 -5 5 -10 10 -10 6 0 10 5 10 10 0 6 -4 10 -10 10 -5 0
-10 -4 -10 -10z"/>
<path d="M3135 5630 c-3 -5 -1 -10 4 -10 6 0 11 5 11 10 0 6 -2 10 -4 10 -3 0
-8 -4 -11 -10z"/>
<path d="M3083 5616 c-16 -19 -4 -29 13 -11 8 7 14 16 14 19 0 10 -15 6 -27
-8z"/>
<path d="M5070 5616 c0 -8 -3 -23 -6 -33 -3 -10 2 -7 10 7 18 30 20 40 6 40
-5 0 -10 -6 -10 -14z"/>
<path d="M4500 5580 c0 -5 5 -10 11 -10 5 0 7 -4 4 -10 -3 -5 -1 -10 5 -10 6
0 8 -4 5 -10 -3 -5 -1 -10 6 -10 8 0 9 -3 0 -13 -6 -8 -8 -17 -4 -20 3 -4 1
-7 -5 -7 -16 0 -24 18 -10 23 10 4 9 8 -2 16 -8 6 -19 11 -25 11 -5 0 -3 -4 5
-10 8 -5 11 -12 8 -16 -4 -4 -3 -15 3 -25 7 -15 6 -17 -6 -13 -17 7 -21 -11
-5 -21 12 -7 14 -26 3 -24 -5 1 -15 1 -23 0 -12 -1 -11 -4 3 -18 20 -21 20
-21 56 57 l29 65 -22 27 c-22 28 -36 35 -36 18z"/>
<path d="M4354 5572 c-13 -8 -34 -46 -34 -61 0 -6 5 -11 11 -11 5 0 7 5 4 10
-3 6 1 10 10 10 12 0 15 5 11 16 -4 9 -1 23 5 30 13 15 10 18 -7 6z"/>
<path d="M7598 5511 c-47 -31 -90 -60 -95 -65 -10 -12 2 -5 102 57 90 56 90
56 84 61 -2 2 -43 -22 -91 -53z"/>
<path d="M3316 5515 c3 -7 12 -16 19 -19 9 -3 12 0 9 9 -3 7 -12 16 -19 19 -9
3 -12 0 -9 -9z"/>
<path d="M5037 5523 c-4 -3 -7 -13 -7 -22 1 -13 3 -13 11 2 11 19 8 33 -4 20z"/>
<path d="M974 5508 c-3 -5 -2 -7 3 -6 4 1 17 -3 28 -9 18 -9 104 -31 160 -39
11 -1 35 -7 54 -13 19 -6 37 -9 39 -6 3 3 10 1 16 -4 6 -5 45 -16 86 -26 74
-17 97 -24 155 -46 28 -11 37 -13 77 -17 9 -1 23 -9 32 -17 19 -19 45 -9 39
15 -5 19 -75 42 -143 45 -33 2 -84 17 -123 37 -10 5 -22 6 -27 3 -5 -3 -26 2
-47 10 -21 9 -74 23 -118 30 -44 8 -113 23 -153 33 -40 10 -75 15 -78 10z"/>
<path d="M4445 5490 c-3 -5 -2 -10 4 -10 5 0 13 5 16 10 3 6 2 10 -4 10 -5 0
-13 -4 -16 -10z"/>
<path d="M5015 5470 c-3 -5 -1 -10 4 -10 6 0 11 5 11 10 0 6 -2 10 -4 10 -3 0
-8 -4 -11 -10z"/>
<path d="M4457 5449 c7 -7 15 -10 18 -7 3 3 -2 9 -12 12 -14 6 -15 5 -6 -5z"/>
<path d="M3250 5440 c0 -5 5 -10 10 -10 6 0 10 5 10 10 0 6 -4 10 -10 10 -5 0
-10 -4 -10 -10z"/>
<path d="M7430 5404 c-60 -40 -94 -69 -45 -39 82 50 115 75 102 75 -1 0 -27
-16 -57 -36z"/>
<path d="M3165 5400 c-3 -5 -1 -10 4 -10 6 0 11 5 11 10 0 6 -2 10 -4 10 -3 0
-8 -4 -11 -10z"/>
<path d="M3290 5385 c7 -9 15 -13 17 -11 7 7 -7 26 -19 26 -6 0 -6 -6 2 -15z"/>
<path d="M4971 5344 c0 -11 3 -14 6 -6 3 7 2 16 -1 19 -3 4 -6 -2 -5 -13z"/>
<path d="M1693 5333 c-15 -5 -17 -23 -4 -23 5 0 11 7 15 15 3 8 4 15 3 14 -1
0 -8 -3 -14 -6z"/>
<path d="M7110 5204 c-113 -69 -209 -131 -215 -136 -14 -15 -6 -10 190 110 94
58 175 106 180 106 9 0 63 46 54 46 -2 0 -96 -57 -209 -126z"/>
<path d="M4395 5310 c3 -5 8 -10 11 -10 2 0 4 5 4 10 0 6 -5 10 -11 10 -5 0
-7 -4 -4 -10z"/>
<path d="M1765 5290 c3 -5 8 -10 11 -10 2 0 4 5 4 10 0 6 -5 10 -11 10 -5 0
-7 -4 -4 -10z"/>
<path d="M3389 5283 c-12 -15 -12 -16 5 -10 12 5 22 3 27 -5 4 -7 11 -9 15 -6
6 6 -18 38 -29 38 -3 0 -11 -8 -18 -17z"/>
<path d="M4937 5268 c-9 -21 -20 -38 -26 -38 -5 0 -7 -8 -5 -17 9 -33 -110
-305 -142 -325 -14 -9 -70 -236 -60 -245 3 -4 13 0 22 8 16 17 174 452 174
481 0 9 5 20 10 23 6 3 10 15 10 26 0 10 5 19 10 19 6 0 10 9 10 21 0 11 5 29
11 40 6 11 8 25 6 32 -2 7 -11 -5 -20 -25z"/>
<path d="M1938 5263 c7 -3 16 -2 19 1 4 3 -2 6 -13 5 -11 0 -14 -3 -6 -6z"/>
<path d="M1970 5260 c0 -5 5 -10 11 -10 5 0 7 5 4 10 -3 6 -8 10 -11 10 -2 0
-4 -4 -4 -10z"/>
<path d="M4425 5250 c3 -5 8 -10 11 -10 2 0 4 5 4 10 0 6 -5 10 -11 10 -5 0
-7 -4 -4 -10z"/>
<path d="M3465 5240 c-3 -5 -2 -10 4 -10 5 0 13 5 16 10 3 6 2 10 -4 10 -5 0
-13 -4 -16 -10z"/>
<path d="M3440 5231 c0 -6 4 -13 10 -16 6 -3 7 1 4 9 -7 18 -14 21 -14 7z"/>
<path d="M1986 5221 c-3 -5 5 -11 19 -13 28 -6 34 6 9 16 -20 8 -22 8 -28 -3z"/>
<path d="M2102 5214 c26 -11 35 -20 31 -32 -4 -15 -3 -15 7 -2 9 11 13 12 17
3 2 -7 13 -13 24 -13 11 0 27 -4 37 -9 9 -5 41 -20 70 -32 28 -12 52 -26 52
-31 0 -4 6 -8 13 -8 6 0 36 -11 66 -25 l53 -25 -17 -28 c-10 -15 -24 -33 -33
-39 -9 -7 -13 -15 -10 -18 3 -3 19 9 35 28 37 42 59 57 50 34 -3 -9 -1 -18 6
-21 7 -3 6 -5 -3 -5 -12 -1 -16 -12 -16 -41 0 -38 1 -39 20 -27 12 8 25 28 31
45 11 38 14 38 45 12 13 -11 27 -20 33 -20 5 0 6 -7 3 -16 -3 -8 -1 -24 4 -35
7 -13 7 -19 0 -19 -19 0 -10 -18 13 -25 13 -4 17 -8 10 -12 -19 -7 -16 -21 6
-28 29 -9 30 -36 2 -75 l-25 -35 32 29 c21 19 32 39 32 56 0 15 9 35 19 44 29
27 33 66 7 87 -11 10 -25 18 -30 19 -5 0 -39 20 -75 44 -94 62 -249 151 -296
170 l-40 16 24 -20 c13 -11 22 -20 19 -20 -12 0 -115 42 -143 59 -19 11 -51
23 -72 26 l-38 6 37 -17z m582 -309 c16 -32 13 -65 -5 -65 -5 0 -9 8 -9 18 0
9 -9 31 -19 49 -11 17 -17 33 -14 36 11 11 32 -6 47 -38z"/>
<path d="M3490 5220 c0 -5 5 -10 10 -10 6 0 10 5 10 10 0 6 -4 10 -10 10 -5 0
-10 -4 -10 -10z"/>
<path d="M4380 5128 c0 -27 5 -48 10 -48 13 0 13 60 0 80 -7 11 -10 2 -10 -32z"/>
<path d="M3700 5140 c0 -5 5 -10 10 -10 6 0 10 5 10 10 0 6 -4 10 -10 10 -5 0
-10 -4 -10 -10z"/>
<path d="M4440 5135 c-8 -76 -7 -85 5 -85 7 0 15 -6 18 -12 4 -10 7 -10 18 -1
11 11 10 15 -6 26 -10 8 -16 18 -12 23 3 5 -1 23 -8 39 -11 24 -14 26 -15 10z"/>
<path d="M4490 5105 c-7 -9 -8 -15 -2 -15 5 0 12 7 16 15 3 8 4 15 2 15 -2 0
-9 -7 -16 -15z"/>
<path d="M3380 5090 c0 -5 5 -10 10 -10 6 0 10 5 10 10 0 6 -4 10 -10 10 -5 0
-10 -4 -10 -10z"/>
<path d="M3727 5083 c-10 -9 -8 -33 2 -33 5 0 11 9 14 20 5 20 -3 26 -16 13z"/>
<path d="M4550 5059 c0 -5 5 -7 10 -4 6 3 10 8 10 11 0 2 -4 4 -10 4 -5 0 -10
-5 -10 -11z"/>
<path d="M4520 5050 c0 -5 5 -10 10 -10 6 0 10 5 10 10 0 6 -4 10 -10 10 -5 0
-10 -4 -10 -10z"/>
<path d="M6854 5044 c-18 -14 -18 -15 4 -4 12 6 22 13 22 15 0 8 -5 6 -26 -11z"/>
<path d="M3610 5021 c0 -5 5 -13 10 -16 6 -3 10 -2 10 4 0 5 -4 13 -10 16 -5
3 -10 2 -10 -4z"/>
<path d="M4440 5017 c0 -8 7 -17 15 -21 8 -3 15 -10 15 -16 0 -5 -7 -10 -15
-10 -19 0 -19 -14 1 -34 18 -18 34 -21 34 -6 0 6 -7 10 -15 10 -14 0 -14 3 -1
23 14 20 13 24 -10 46 -17 17 -24 19 -24 8z"/>
<path d="M6804 5014 c-18 -14 -18 -15 4 -4 12 6 22 13 22 15 0 8 -5 6 -26 -11z"/>
<path d="M4510 4999 c0 -5 5 -7 10 -4 6 3 10 8 10 11 0 2 -4 4 -10 4 -5 0 -10
-5 -10 -11z"/>
<path d="M6653 4927 c-40 -24 -76 -47 -80 -52 -10 -10 104 53 138 77 44 31 15
18 -58 -25z"/>
<path d="M3670 4949 c0 -5 -4 -7 -10 -4 -28 17 -3 -18 61 -85 l70 -75 -60 74
c-33 41 -57 79 -54 87 3 8 2 14 -1 14 -3 0 -6 -5 -6 -11z"/>
<path d="M2555 4920 c-3 -5 -1 -10 4 -10 6 0 11 5 11 10 0 6 -2 10 -4 10 -3 0
-8 -4 -11 -10z"/>
<path d="M2784 4865 c4 -14 1 -35 -5 -47 -10 -18 -9 -20 6 -15 9 4 19 7 21 7
2 0 4 6 4 14 0 7 7 19 15 26 13 11 14 10 9 -4 -5 -12 0 -19 15 -23 15 -4 21
-13 21 -34 0 -16 5 -29 10 -29 6 0 10 7 10 15 0 8 4 15 10 15 5 0 7 -7 4 -15
-4 -8 -1 -15 4 -15 10 0 28 39 20 43 -1 1 -18 10 -36 20 -19 9 -39 14 -45 10
-6 -4 -8 0 -4 10 4 11 -3 21 -25 32 -40 20 -41 19 -34 -10z"/>
<path d="M4440 4841 c0 -17 5 -31 10 -31 6 0 10 9 10 20 0 11 0 23 1 27 0 4
-4 9 -10 11 -6 2 -11 -10 -11 -27z"/>
<path d="M6534 4854 c-18 -14 -18 -15 4 -4 12 6 22 13 22 15 0 8 -5 6 -26 -11z"/>
<path d="M6468 4819 c-21 -11 -38 -22 -38 -24 0 -3 18 4 40 15 22 11 40 23 40
25 0 7 0 7 -42 -16z"/>
<path d="M2942 4777 c-14 -16 19 -40 43 -31 10 4 15 0 15 -10 0 -9 -8 -16 -21
-16 -11 0 -17 -4 -14 -10 10 -15 36 -12 50 7 11 14 13 13 19 -11 7 -28 26 -31
34 -6 3 9 -1 11 -12 7 -10 -4 -16 -1 -16 7 0 11 -71 76 -83 76 -3 0 -9 -6 -15
-13z"/>
<path d="M5703 4783 c-13 -2 -23 -9 -23 -15 0 -5 7 -7 16 -4 9 3 29 6 45 6 18
0 28 4 24 10 -6 10 -22 11 -62 3z"/>
<path d="M6378 4769 c-21 -11 -38 -22 -38 -24 0 -3 18 4 40 15 22 11 40 23 40
25 0 7 0 7 -42 -16z"/>
<path d="M3811 4761 c8 -10 36 -46 64 -81 31 -39 50 -73 51 -91 1 -20 20 -50
59 -94 31 -36 61 -65 67 -65 6 0 -9 21 -34 48 -60 64 -81 98 -75 122 3 10 2
20 -2 22 -3 2 -35 38 -70 81 -35 42 -66 77 -69 77 -2 0 2 -8 9 -19z"/>
<path d="M5499 4762 c-8 -13 -19 -17 -32 -14 -14 3 -18 1 -13 -6 5 -8 -1 -12
-17 -12 -14 0 -32 -11 -46 -31 -14 -19 -28 -28 -37 -25 -8 3 -13 2 -9 -3 9
-15 -120 -142 -137 -136 -9 4 -19 2 -23 -4 -3 -7 0 -8 9 -5 23 9 20 -5 -6 -30
-13 -11 -31 -33 -41 -48 -9 -16 -24 -28 -32 -28 -8 0 -15 -4 -15 -10 0 -14
-37 -50 -51 -50 -6 0 -9 -7 -5 -15 5 -13 2 -14 -15 -4 -16 8 -24 7 -38 -5 -10
-9 -22 -16 -28 -16 -13 0 -13 -33 0 -42 12 -7 48 11 60 30 5 7 12 10 17 7 4
-3 10 2 13 10 8 18 82 57 92 47 4 -4 3 3 -4 15 -10 19 -8 25 14 39 14 9 23 20
20 24 -2 4 8 18 23 31 l27 24 -24 -27 c-31 -35 -19 -36 23 -3 17 14 36 29 41
33 6 4 18 13 28 21 10 8 37 18 60 21 23 4 83 20 132 35 167 51 343 78 489 76
79 -1 102 -5 111 -18 7 -9 17 -13 23 -9 7 4 12 5 12 3 0 -6 -188 -115 -405
-235 -99 -55 -220 -123 -268 -151 -48 -28 -90 -51 -92 -51 -2 0 -26 -13 -52
-30 -48 -31 -69 -38 -58 -20 3 6 -1 10 -9 10 -9 0 -16 -6 -16 -14 0 -17 -54
-59 -63 -49 -4 3 -15 -5 -25 -17 -13 -16 -21 -20 -26 -12 -4 7 0 15 8 18 9 3
16 10 16 15 0 18 -20 8 -47 -21 -14 -16 -32 -30 -40 -30 -7 0 -14 -10 -14 -22
-1 -19 -2 -19 -6 -5 -3 11 -10 16 -20 13 -8 -3 -17 -6 -21 -6 -3 0 3 -7 14
-15 18 -14 16 -14 -20 -10 -21 2 -48 7 -60 11 -21 6 -21 6 2 -15 12 -12 22
-27 21 -34 0 -9 -2 -9 -6 1 -2 6 -9 12 -14 12 -6 0 -7 -4 -4 -10 3 -5 0 -10
-8 -10 -8 0 -17 -7 -21 -15 -3 -8 -10 -15 -16 -15 -6 0 -9 4 -6 9 4 5 -3 7
-14 4 -12 -3 -20 -14 -20 -27 0 -17 -2 -18 -10 -6 -9 13 -12 13 -21 -2 -5 -10
-19 -18 -30 -18 -16 0 -19 6 -16 35 2 19 7 38 12 42 4 5 5 2 1 -4 -4 -7 -4
-13 1 -13 15 1 58 39 58 52 0 9 11 12 34 10 28 -3 31 -2 20 11 -7 8 -21 12
-31 9 -12 -3 -18 1 -18 13 0 13 -3 15 -13 6 -30 -24 -25 5 6 38 18 20 46 56
61 81 24 40 20 37 -44 -30 -62 -66 -70 -79 -67 -108 3 -30 -5 -41 -75 -112
-47 -46 -70 -76 -58 -73 11 3 20 0 20 -6 0 -6 -13 -11 -30 -11 -32 0 -41 -16
-12 -22 27 -6 119 18 156 40 33 19 35 20 50 3 9 -10 13 -20 10 -24 -4 -3 5
-12 20 -18 21 -10 41 -9 104 4 107 23 109 23 116 -20 12 -67 16 -73 46 -73 19
0 30 -6 33 -17 4 -17 5 -17 6 0 1 23 13 22 34 -4 17 -19 17 -22 2 -45 -9 -14
-14 -31 -11 -37 2 -7 5 -6 5 4 1 22 44 60 57 51 7 -4 13 -16 16 -27 2 -11 6
-15 10 -10 3 6 -2 27 -12 48 -10 20 -14 37 -9 37 8 0 3 89 -6 98 -2 2 -11 -3
-20 -12 -12 -12 -15 -28 -12 -61 3 -25 1 -43 -4 -39 -5 3 -9 11 -9 18 0 8 -9
16 -20 19 -13 3 -18 10 -14 21 3 9 2 16 -4 16 -14 0 -33 -26 -24 -34 4 -5 -4
-6 -18 -4 -30 4 -38 32 -15 54 13 13 21 14 41 6 14 -7 24 -8 24 -2 0 11 -48
25 -57 17 -6 -6 -33 17 -33 28 0 4 11 4 25 1 17 -4 24 -2 23 5 -2 7 12 13 36
14 21 1 41 6 45 12 3 5 20 15 38 21 26 8 31 8 27 -3 -4 -10 0 -12 15 -8 12 3
21 1 21 -5 0 -6 20 -20 45 -31 25 -11 46 -26 47 -33 0 -7 2 -17 3 -23 0 -5 11
-29 23 -53 13 -23 20 -47 17 -52 -3 -6 0 -19 8 -31 15 -20 15 -20 22 11 13 60
-11 149 -33 125 -4 -4 -1 -10 6 -12 14 -5 16 -33 2 -33 -5 0 -10 2 -10 5 0 2
-9 27 -20 54 -16 40 -17 49 -5 44 8 -3 15 -1 15 5 0 6 -12 14 -27 19 -28 10
-28 10 17 26 25 8 62 18 82 22 23 3 42 14 48 26 10 18 12 18 27 3 15 -15 17
-15 22 -1 4 11 11 13 20 8 16 -10 41 -4 41 11 0 6 -7 8 -15 5 -8 -4 -17 -3
-19 2 -3 4 0 8 7 8 7 0 20 4 30 8 13 6 16 3 11 -9 -7 -17 3 -21 24 -7 12 7 12
12 0 30 -7 12 -19 19 -26 16 -8 -3 -32 -8 -55 -11 -23 -4 -46 -10 -52 -14 -5
-5 -28 -12 -50 -16 -22 -4 -53 -13 -70 -19 -52 -22 -117 -29 -115 -13 3 19
-11 59 -19 54 -3 -2 -6 9 -6 24 0 16 2 28 5 28 18 -1 21 4 9 19 -12 15 -12 16
5 10 14 -6 30 1 56 22 40 32 59 32 32 1 -19 -23 -24 -74 -5 -58 7 5 15 19 19
30 5 17 8 18 15 7 7 -9 7 -5 3 14 -5 21 -2 32 12 42 18 13 18 14 -2 9 -32 -8
-41 26 -12 47 12 10 26 15 30 13 4 -3 8 4 8 14 0 20 43 55 67 55 7 0 13 4 13
9 0 4 9 3 19 -4 16 -10 25 -9 45 2 14 7 26 17 26 22 0 5 -4 6 -10 3 -5 -3 -10
1 -10 9 0 14 36 33 53 28 5 -1 6 1 4 5 -3 5 13 19 36 32 28 16 38 19 29 8 -8
-9 -22 -19 -33 -22 -10 -4 -19 -11 -19 -17 0 -7 4 -7 13 0 6 5 46 27 87 49 41
22 103 56 136 76 34 20 72 41 85 46 13 5 44 23 68 40 25 16 48 28 52 25 4 -2
20 7 35 21 15 14 32 25 38 25 6 0 17 4 24 8 17 11 4 45 -15 38 -8 -4 -20 -3
-26 1 -13 9 -4 8 -318 17 -233 6 -279 14 -293 52 -4 10 -13 13 -26 9 -12 -4
-27 -1 -35 5 -11 9 -17 7 -26 -8z m602 -99 c13 -17 13 -17 -6 -3 -11 8 -22 16
-24 17 -2 2 0 3 6 3 6 0 17 -8 24 -17z m59 -3 c0 -5 -5 -10 -11 -10 -5 0 -7 5
-4 10 3 6 8 10 11 10 2 0 4 -4 4 -10z m-463 -6 c-3 -3 -12 -4 -19 -1 -8 3 -5
6 6 6 11 1 17 -2 13 -5z m512 3 c-2 -2 -17 -11 -34 -21 l-30 -17 24 20 c13 12
28 21 34 21 6 0 8 -1 6 -3z m-756 -44 c-7 -2 -19 -2 -25 0 -7 3 -2 5 12 5 14
0 19 -2 13 -5z m677 3 c0 -3 -100 -66 -137 -85 -39 -20 -25 -3 15 19 20 12 55
32 77 45 42 26 45 27 45 21z m-220 -130 c0 -2 -7 -7 -16 -10 -8 -3 -12 -2 -9
4 6 10 25 14 25 6z m-45 -25 c-17 -16 -87 -52 -92 -47 -3 2 17 16 44 30 52 27
62 31 48 17z m-851 -136 c-4 -8 -13 -15 -21 -15 -13 0 -13 3 -3 15 7 8 16 15
21 15 5 0 6 -7 3 -15z m396 -164 c0 -2 -13 -17 -30 -32 -33 -32 -56 -38 -46
-13 3 9 6 20 6 25 0 5 4 9 10 9 5 0 7 -7 4 -15 -5 -11 -2 -13 10 -9 10 4 14
13 11 23 -3 12 1 17 15 17 11 0 20 -2 20 -5z m-80 -11 c0 -5 -4 -10 -10 -10
-5 0 -10 5 -10 10 0 6 5 10 10 10 6 0 10 -4 10 -10z m-30 -35 c7 -8 8 -15 2
-15 -5 0 -15 7 -22 15 -7 8 -8 15 -2 15 5 0 15 -7 22 -15z m-220 -75 c-8 -5
-17 -7 -19 -4 -3 3 1 9 9 14 8 5 17 7 19 4 3 -3 -1 -9 -9 -14z m90 -9 c0 -4
11 -7 25 -6 28 4 35 -13 32 -77 -2 -37 -3 -38 -57 -48 -30 -5 -74 -14 -97 -19
-24 -4 -43 -4 -43 0 0 5 -18 12 -39 15 -26 4 -38 11 -35 19 3 7 15 10 29 8 17
-4 25 1 30 16 6 20 16 25 43 22 6 -1 12 3 12 9 0 5 -8 10 -17 10 -15 0 -15 2
-4 9 8 5 21 7 29 3 11 -4 13 -1 7 8 -5 9 -4 11 3 6 6 -4 21 -2 33 4 19 11 20
10 10 -9 -6 -11 -16 -23 -21 -26 -6 -3 -10 -12 -10 -18 1 -7 14 3 30 22 15 18
26 40 23 47 -3 8 0 14 6 14 6 0 11 -4 11 -9z m-165 -71 c3 -5 1 -10 -4 -10 -6
0 -11 5 -11 10 0 6 2 10 4 10 3 0 8 -4 11 -10z m242 -32 c-3 -8 -6 -5 -6 6 -1
11 2 17 5 13 3 -3 4 -12 1 -19z m58 4 c-3 -3 -11 0 -18 7 -9 10 -8 11 6 5 10
-3 15 -9 12 -12z m-365 -11 c0 -5 -10 -11 -22 -14 -22 -6 -22 -6 -4 8 23 17
26 18 26 6z m480 5 c0 -2 -7 -7 -16 -10 -8 -3 -12 -2 -9 4 6 10 25 14 25 6z"/>
<path d="M5035 3936 c-18 -13 -18 -14 1 -19 52 -15 86 -19 80 -9 -3 6 -20 13
-36 17 -17 4 -28 11 -24 16 7 13 1 11 -21 -5z"/>
<path d="M4447 4740 c-40 -25 -42 -28 -23 -49 10 -11 15 -24 12 -29 -3 -6 -2
-21 3 -34 7 -17 10 -18 10 -5 1 9 5 17 10 17 5 0 11 7 15 15 3 8 0 14 -7 12
-19 -3 -20 43 -1 64 23 26 15 30 -19 9z"/>
<path d="M6254 4746 c-13 -10 -10 -12 20 -8 41 5 44 8 16 15 -10 3 -26 -1 -36
-7z"/>
<path d="M3980 4735 c-7 -8 -9 -15 -6 -15 4 0 14 7 22 15 9 8 11 15 6 15 -5 0
-15 -7 -22 -15z"/>
<path d="M6200 4709 c0 -5 5 -7 10 -4 6 3 10 8 10 11 0 2 -4 4 -10 4 -5 0 -10
-5 -10 -11z"/>
<path d="M6255 4700 c-3 -6 1 -7 9 -4 18 7 21 14 7 14 -6 0 -13 -4 -16 -10z"/>
<path d="M3077 4693 c-14 -14 -5 -24 58 -64 35 -23 62 -46 58 -52 -3 -6 -1 -7
5 -3 15 9 128 -68 185 -126 24 -23 75 -65 115 -92 39 -27 69 -52 66 -57 -6
-10 33 -32 44 -25 5 3 21 -6 38 -20 16 -14 22 -22 14 -18 -13 7 -13 6 -1 -9 7
-10 21 -16 30 -15 9 2 15 -2 14 -9 -1 -6 4 -14 13 -17 10 -4 13 -1 9 7 -4 6 0
4 8 -5 8 -10 21 -18 29 -18 8 0 27 -11 42 -25 14 -13 27 -25 29 -25 39 -9 47
-15 43 -27 -3 -8 0 -13 7 -11 6 1 22 -3 35 -10 17 -10 22 -10 22 0 0 8 5 7 16
-4 15 -14 14 -20 -5 -63 -12 -26 -21 -54 -21 -61 0 -8 -5 -14 -12 -14 -6 0 -8
-3 -5 -6 3 -4 -3 -18 -13 -32 -21 -27 -25 -42 -11 -42 5 0 32 45 59 100 l51
100 -37 27 c-80 60 -151 126 -145 136 4 6 0 8 -9 5 -18 -8 -81 40 -72 54 4 7
2 8 -4 4 -13 -8 -74 33 -66 45 2 4 -1 11 -7 15 -8 4 -9 3 -5 -4 12 -20 -3 -14
-62 27 -31 21 -95 62 -142 91 -87 53 -130 90 -130 111 0 7 -9 9 -24 5 -35 -9
-122 50 -105 70 8 10 8 14 0 14 -6 0 -11 -4 -11 -10 0 -18 -16 -10 -53 25 -39
38 -40 38 -50 28z m404 -299 c9 -11 2 -9 -18 6 -18 13 -33 25 -33 27 0 8 38
-17 51 -33z m159 -110 c0 -3 -13 4 -30 16 -16 12 -30 24 -30 26 0 3 14 -4 30
-16 17 -12 30 -24 30 -26z m31 -21 c13 -16 12 -17 -3 -4 -17 13 -22 21 -14 21
2 0 10 -8 17 -17z"/>
<path d="M3590 4666 c0 -2 7 -7 16 -10 8 -3 12 -2 9 4 -6 10 -25 14 -25 6z"/>
<path d="M3705 4660 c-3 -5 -1 -10 4 -10 6 0 11 5 11 10 0 6 -2 10 -4 10 -3 0
-8 -4 -11 -10z"/>
<path d="M4600 4659 c0 -5 5 -7 10 -4 6 3 10 8 10 11 0 2 -4 4 -10 4 -5 0 -10
-5 -10 -11z"/>
<path d="M4493 4633 c-28 -5 -29 -14 -3 -30 12 -8 21 -9 25 -3 3 6 1 10 -6 10
-8 0 -8 4 1 15 7 8 11 14 9 14 -2 -1 -14 -4 -26 -6z"/>
<path d="M4543 4610 c-1 -11 4 -20 12 -20 14 0 27 24 18 34 -13 13 -29 5 -30
-14z"/>
<path d="M4371 4604 c0 -11 3 -14 6 -6 3 7 2 16 -1 19 -3 4 -6 -2 -5 -13z"/>
<path d="M4685 4605 c-4 -11 -11 -30 -15 -42 -5 -12 -6 -24 -2 -27 11 -7 38
11 30 20 -4 4 -3 14 2 23 5 10 5 23 0 31 -7 12 -10 11 -15 -5z"/>
<path d="M4245 4590 c3 -5 13 -10 21 -10 8 0 12 5 9 10 -3 6 -13 10 -21 10 -8
0 -12 -4 -9 -10z"/>
<path d="M4439 4565 c-6 -40 -4 -53 7 -43 3 3 4 23 2 44 l-3 39 -6 -40z"/>
<path d="M3725 4570 c-3 -5 -1 -10 4 -10 6 0 11 5 11 10 0 6 -2 10 -4 10 -3 0
-8 -4 -11 -10z"/>
<path d="M4850 4565 c0 -8 2 -15 4 -15 2 0 6 7 10 15 3 8 1 15 -4 15 -6 0 -10
-7 -10 -15z"/>
<path d="M5032 4539 c2 -7 10 -15 17 -17 8 -3 12 1 9 9 -2 7 -10 15 -17 17 -8
3 -12 -1 -9 -9z"/>
<path d="M3615 4530 c-3 -5 -1 -10 4 -10 6 0 11 5 11 10 0 6 -2 10 -4 10 -3 0
-8 -4 -11 -10z"/>
<path d="M4391 4523 c-7 -8 -10 -17 -7 -20 9 -9 29 13 25 25 -2 6 -10 3 -18
-5z"/>
<path d="M4693 4524 c-3 -8 -3 -18 1 -21 3 -4 6 -1 6 5 0 7 6 12 14 12 23 0
27 16 5 17 -11 1 -23 -5 -26 -13z"/>
<path d="M3375 4515 c11 -8 26 -19 33 -26 7 -6 16 -9 18 -6 6 6 -50 47 -63 47
-4 0 1 -7 12 -15z"/>
<path d="M4500 4520 c-22 -5 -23 -7 -7 -13 26 -10 57 -9 57 2 0 13 -22 18 -50
11z"/>
<path d="M5127 4512 c-39 -3 -42 -22 -4 -22 22 0 56 16 47 22 -3 2 -22 2 -43
0z"/>
<path d="M3606 4501 c-3 -5 1 -14 9 -21 13 -10 15 -9 15 9 0 21 -14 28 -24 12z"/>
<path d="M4420 4503 c1 -18 18 -35 24 -24 4 6 4 16 1 21 -7 12 -25 13 -25 3z"/>
<path d="M4525 4480 c-3 -5 -1 -10 4 -10 6 0 11 5 11 10 0 6 -2 10 -4 10 -3 0
-8 -4 -11 -10z"/>
<path d="M4832 4445 c-14 -31 -15 -45 -4 -45 5 0 9 6 9 13 0 6 3 22 7 35 10
30 2 28 -12 -3z"/>
<path d="M4415 4450 c3 -5 13 -10 21 -10 8 0 14 5 14 10 0 6 -9 10 -21 10 -11
0 -17 -4 -14 -10z"/>
<path d="M4673 4446 c5 -15 79 -56 89 -50 15 9 8 23 -14 30 -13 4 -26 12 -30
18 -9 15 -50 17 -45 2z"/>
<path d="M4558 4433 c6 -2 18 -2 25 0 6 3 1 5 -13 5 -14 0 -19 -2 -12 -5z"/>
<path d="M4866 4386 c-9 -15 -12 -26 -7 -26 5 0 13 5 16 10 3 6 17 10 31 10
13 0 24 5 24 10 0 6 -4 10 -9 10 -5 0 -16 2 -24 6 -8 3 -21 -5 -31 -20z"/>
<path d="M3795 4375 c-33 -15 -17 -19 34 -9 17 4 31 10 31 15 0 13 -30 10 -65
-6z"/>
<path d="M4350 4383 c0 -5 9 -18 20 -28 11 -10 20 -14 20 -8 0 5 -9 18 -20 28
-11 10 -20 14 -20 8z"/>
<path d="M4943 4368 c-2 -16 1 -17 13 -8 17 15 17 17 1 23 -8 3 -14 -3 -14
-15z"/>
<path d="M3821 4351 c-8 -5 -9 -11 -3 -15 5 -3 15 1 22 9 14 16 3 20 -19 6z"/>
<path d="M4400 4339 c0 -11 4 -18 10 -14 5 3 7 12 3 20 -7 21 -13 19 -13 -6z"/>
<path d="M4910 4354 c0 -17 17 -36 24 -26 3 5 -1 15 -9 22 -8 7 -15 9 -15 4z"/>
<path d="M4331 4317 c-13 -21 -12 -21 5 -5 10 10 16 20 13 22 -3 3 -11 -5 -18
-17z"/>
<path d="M3915 4320 c-3 -5 -2 -10 4 -10 5 0 13 5 16 10 3 6 2 10 -4 10 -5 0
-13 -4 -16 -10z"/>
<path d="M6770 4320 c-13 -8 -12 -10 3 -10 9 0 17 5 17 10 0 12 -1 12 -20 0z"/>
<path d="M2370 4310 c-8 -5 -10 -10 -5 -10 6 0 17 5 25 10 8 5 11 10 5 10 -5
0 -17 -5 -25 -10z"/>
<path d="M2425 4310 c3 -5 11 -10 16 -10 6 0 7 5 4 10 -3 6 -11 10 -16 10 -6
0 -7 -4 -4 -10z"/>
<path d="M4355 4309 c-4 -6 -5 -12 -2 -15 2 -3 7 2 10 11 7 17 1 20 -8 4z"/>
<path d="M6695 4300 c-25 -11 1 -11 35 0 20 6 21 8 5 8 -11 0 -29 -3 -40 -8z"/>
<path d="M3885 4290 c-3 -6 1 -7 9 -4 18 7 21 14 7 14 -6 0 -13 -4 -16 -10z"/>
<path d="M6635 4280 c-3 -6 1 -7 9 -4 18 7 21 14 7 14 -6 0 -13 -4 -16 -10z"/>
<path d="M2190 4270 c0 -5 5 -10 11 -10 5 0 7 5 4 10 -3 6 -8 10 -11 10 -2 0
-4 -4 -4 -10z"/>
<path d="M2285 4267 c-4 -10 -5 -21 -1 -24 10 -10 18 4 13 24 -4 17 -4 17 -12
0z"/>
<path d="M6580 4270 c0 -5 5 -10 10 -10 6 0 10 5 10 10 0 6 -4 10 -10 10 -5 0
-10 -4 -10 -10z"/>
<path d="M2220 4260 c0 -5 12 -10 28 -9 24 0 25 1 7 9 -27 12 -35 12 -35 0z"/>
<path d="M4094 4252 c-12 -19 3 -42 28 -42 8 1 5 7 -7 16 -14 11 -16 18 -7 21
6 3 12 9 12 14 0 15 -14 10 -26 -9z"/>
<path d="M4935 4240 c-10 -11 -14 -20 -8 -20 5 0 18 9 28 20 10 11 14 20 8 20
-5 0 -18 -9 -28 -20z"/>
<path d="M2320 4241 c0 -6 214 -62 257 -67 12 -1 27 -5 32 -9 6 -3 11 -1 11 5
0 7 7 5 16 -4 8 -9 19 -16 24 -16 5 0 17 -3 27 -6 16 -5 16 -4 -1 10 -11 9
-14 16 -8 16 7 0 12 4 12 8 0 5 -16 9 -36 10 -20 1 -42 6 -49 12 -9 8 -14 8
-17 0 -4 -14 -147 17 -163 35 -10 11 -105 17 -105 6z"/>
<path d="M3830 4239 c0 -5 5 -7 10 -4 6 3 10 8 10 11 0 2 -4 4 -10 4 -5 0 -10
-5 -10 -11z"/>
<path d="M6490 4240 c-18 -12 -2 -12 25 0 13 6 15 9 5 9 -8 0 -22 -4 -30 -9z"/>
<path d="M2490 4230 c0 -5 5 -10 10 -10 6 0 10 5 10 10 0 6 -4 10 -10 10 -5 0
-10 -4 -10 -10z"/>
<path d="M4960 4220 c-8 -5 -12 -12 -9 -15 4 -3 12 1 19 10 14 17 11 19 -10 5z"/>
<path d="M5480 4184 c0 -8 5 -12 10 -9 6 4 8 11 5 16 -9 14 -15 11 -15 -7z"/>
<path d="M6285 4180 c-3 -6 1 -7 9 -4 18 7 21 14 7 14 -6 0 -13 -4 -16 -10z"/>
<path d="M4904 4156 c-3 -14 -10 -26 -15 -26 -5 0 -5 -8 -2 -17 5 -12 10 -7
20 22 7 21 11 40 9 43 -3 2 -8 -7 -12 -22z"/>
<path d="M6215 4160 c-3 -5 1 -10 9 -10 8 0 18 5 21 10 3 6 -1 10 -9 10 -8 0
-18 -4 -21 -10z"/>
<path d="M6150 4145 c-16 -19 -3 -19 30 0 24 13 24 14 4 15 -12 0 -27 -7 -34
-15z"/>
<path d="M2745 4130 c3 -5 8 -10 11 -10 2 0 4 5 4 10 0 6 -5 10 -11 10 -5 0
-7 -4 -4 -10z"/>
<path d="M6068 4122 c-27 -8 -48 -19 -48 -23 0 -3 17 -1 38 7 20 7 45 13 55
14 9 0 17 5 17 10 0 12 -3 12 -62 -8z"/>
<path d="M2880 4090 c14 -11 34 -23 45 -26 11 -3 34 -17 52 -30 25 -19 32 -21
36 -9 4 9 16 12 34 10 15 -2 37 -4 48 -5 11 -1 14 -4 8 -7 -17 -6 -16 -32 1
-65 9 -16 10 -28 5 -28 -6 0 -7 -4 -4 -10 3 -5 18 -10 32 -10 l26 0 -20 23
c-11 12 -23 29 -27 37 -4 8 1 6 11 -5 10 -11 26 -19 36 -17 15 3 17 -2 12 -40
-3 -24 -11 -66 -17 -94 -10 -51 -10 -52 26 -99 20 -26 36 -43 36 -37 0 6 -4
14 -10 17 -14 9 -6 65 11 75 7 5 10 13 5 17 -5 4 -11 2 -13 -4 -10 -28 -21
-10 -21 32 0 25 3 43 8 40 5 -3 7 9 4 27 -5 40 4 71 17 62 6 -3 17 0 25 7 18
15 76 21 67 6 -4 -6 4 -7 23 -3 l29 7 -25 -17 c-14 -10 -28 -22 -31 -27 -4 -5
-12 -6 -18 -3 -6 4 -11 3 -11 -3 0 -6 -10 -19 -22 -31 -17 -16 -19 -20 -6 -20
9 0 18 5 20 11 2 6 19 12 38 13 59 5 61 6 55 16 -8 13 1 13 26 -2 17 -10 23
-10 26 0 3 6 14 12 26 12 18 -1 7 -15 -53 -70 -72 -66 -109 -88 -96 -55 6 17
-9 20 -20 4 -3 -6 -2 -14 4 -18 13 -8 4 -51 -10 -51 -12 0 -32 -21 -40 -41 -4
-11 -34 -18 -119 -28 -170 -18 -155 -10 -174 -96 -10 -41 -21 -75 -27 -75 -5
0 -7 -4 -3 -9 8 -14 -68 -161 -83 -161 -9 0 -11 -7 -7 -20 3 -11 4 -20 2 -20
-3 0 -72 -18 -154 -41 -220 -61 -212 -59 -228 -42 -8 8 -15 10 -15 4 0 -6 -7
-11 -15 -11 -9 0 -18 -7 -21 -15 -4 -8 -10 -12 -15 -9 -5 3 -9 -6 -9 -20 0
-30 5 -32 26 -12 22 22 292 100 439 127 39 7 90 23 115 35 53 27 305 106 338
106 12 0 22 4 22 8 0 6 66 30 84 30 3 0 6 -7 6 -16 0 -13 3 -14 14 -5 11 10
17 8 26 -6 10 -17 11 -16 7 3 -4 17 -1 20 14 17 21 -6 25 -18 9 -28 -19 -12
-11 -26 9 -16 16 9 37 53 33 72 -1 7 141 40 146 34 3 -2 -1 -33 -7 -68 -6 -35
-11 -78 -11 -96 0 -21 -4 -30 -11 -25 -6 3 -14 2 -18 -3 -3 -6 -37 -25 -76
-43 -38 -18 -72 -36 -75 -39 -3 -3 -12 -7 -20 -8 -27 -3 -201 -83 -221 -102
-11 -10 -32 -18 -46 -18 -14 0 -29 -6 -33 -13 -4 -7 -15 -10 -24 -7 -9 4 -16
2 -16 -4 0 -6 -4 -8 -9 -5 -4 3 -16 -3 -26 -14 -10 -11 -22 -17 -26 -14 -5 3
-9 0 -9 -6 0 -6 -4 -9 -10 -5 -5 3 -18 -2 -29 -11 -11 -10 -30 -18 -43 -20
-23 -2 -127 -50 -183 -83 -16 -10 -33 -17 -36 -15 -9 5 -52 -18 -73 -38 -9
-10 -23 -15 -30 -12 -7 3 -37 -9 -65 -25 -29 -17 -57 -31 -63 -31 -6 0 -19 -6
-27 -13 -9 -8 -54 -31 -101 -52 -47 -21 -101 -45 -120 -54 -19 -9 -40 -16 -46
-16 -6 0 -18 -6 -27 -13 -9 -8 -23 -15 -30 -16 -8 -1 -21 -7 -28 -12 -14 -10
-89 -47 -99 -49 -3 0 -15 -6 -26 -13 -12 -6 -24 -8 -28 -4 -4 3 -10 2 -14 -4
-9 -15 -87 -54 -106 -54 -8 0 -16 -3 -18 -7 -5 -12 -64 -43 -82 -43 -9 0 -16
-4 -16 -10 0 -5 -8 -10 -17 -10 -10 0 -27 -7 -37 -15 -10 -8 -23 -12 -29 -8
-5 3 -12 1 -16 -4 -12 -21 -150 -83 -167 -76 -11 4 -15 2 -11 -4 5 -7 -168
-96 -193 -98 -3 -1 -24 -11 -48 -23 -23 -12 -42 -19 -42 -15 0 5 -4 3 -8 -3
-8 -12 -96 -58 -132 -69 -13 -4 -30 -14 -38 -21 -27 -27 -19 -24 242 100 65
32 125 55 133 52 7 -3 16 1 20 10 3 8 12 13 19 10 18 -7 45 4 39 15 -3 4 20
20 52 35 32 15 100 47 152 71 52 25 100 46 107 47 6 1 19 8 28 15 9 8 28 14
42 14 14 0 28 6 31 13 3 7 30 23 61 34 53 20 57 20 69 4 7 -10 13 -13 13 -8 0
6 -5 15 -10 20 -8 8 -6 15 5 24 8 7 15 10 15 6 0 -4 14 1 30 9 17 9 35 13 40
10 5 -3 12 0 17 7 10 16 84 52 101 49 6 -1 12 3 12 10 0 6 8 9 20 6 11 -3 18
-2 15 3 -7 11 24 22 38 13 7 -3 9 -3 5 2 -10 11 61 45 79 38 10 -4 14 -2 10 4
-4 6 14 19 41 31 46 21 47 21 56 1 5 -10 13 -19 18 -19 12 0 10 28 -3 35 -6 4
-1 12 13 19 45 24 57 25 73 10 13 -14 15 -13 15 5 0 12 6 21 15 21 8 0 15 -4
15 -10 0 -5 6 -10 13 -10 27 0 423 -436 445 -490 7 -18 11 -23 51 -70 16 -19
33 -32 36 -28 14 14 -238 318 -427 516 -55 57 -98 108 -96 114 6 16 46 17 52
1 3 -7 1 -13 -4 -13 -6 0 -10 -5 -10 -11 0 -6 9 -8 22 -4 16 6 20 4 15 -8 -5
-14 -2 -14 18 -5 13 6 27 18 30 27 5 13 4 14 -6 4 -19 -19 -29 -16 -29 8 0 11
4 18 9 15 5 -4 11 0 14 6 3 10 7 10 19 1 8 -7 18 -10 21 -6 4 3 7 -4 7 -16 0
-12 4 -20 9 -17 5 4 11 0 14 -6 2 -7 8 -10 12 -5 5 4 -1 21 -13 37 -26 35 -27
40 -7 40 8 0 15 6 15 14 0 9 -7 12 -20 9 -11 -3 -20 -1 -20 4 0 5 8 9 18 9 9
0 30 3 45 7 16 5 26 4 24 0 -3 -4 19 -8 49 -9 30 0 54 4 54 8 0 4 -4 8 -9 8
-5 0 -11 7 -14 14 -4 10 -1 13 9 9 7 -3 14 0 14 6 0 6 -6 11 -12 12 -7 0 -2 6
12 12 14 6 28 16 32 22 4 5 8 0 8 -12 0 -13 5 -23 10 -23 6 0 10 9 10 20 0 13
5 18 15 13 10 -3 15 0 13 8 -2 9 5 13 20 12 13 -2 21 1 17 7 -3 5 3 14 14 20
17 9 20 8 14 -7 -5 -13 -3 -15 11 -10 9 4 15 3 11 -2 -3 -5 -1 -12 5 -16 5 -3
10 3 10 14 0 20 32 37 50 26 5 -3 17 -2 26 3 11 6 13 11 5 16 -6 4 -11 2 -11
-3 0 -6 -5 -11 -11 -11 -8 0 -8 5 1 15 7 8 19 15 26 15 7 0 11 6 8 14 -5 13
29 33 49 28 4 -1 7 2 7 8 0 5 6 7 14 4 8 -3 26 2 41 12 31 20 44 9 46 -41 l1
-30 7 30 c5 22 12 29 25 27 11 -2 15 1 11 7 -9 15 4 53 16 45 6 -3 18 0 27 8
15 12 16 11 3 -5 -18 -23 0 -47 22 -29 11 9 16 7 25 -13 9 -20 9 -25 -3 -25
-9 0 -12 6 -9 15 7 18 -11 20 -22 3 -4 -6 2 -18 13 -27 11 -9 18 -22 15 -30
-3 -9 3 -8 22 4 30 20 31 23 10 46 -15 16 -14 17 5 12 13 -3 21 -1 21 7 0 7
11 21 25 32 14 11 25 26 25 35 0 9 6 13 15 9 18 -6 19 -2 4 26 -16 31 -3 33
26 4 14 -14 29 -26 33 -26 16 0 52 32 52 46 0 8 9 14 19 14 11 0 23 5 26 10
10 16 28 12 21 -5 -3 -9 -1 -15 7 -14 34 4 38 -2 13 -22 -14 -11 -31 -17 -37
-13 -7 4 -9 3 -6 -3 4 -6 -12 -28 -36 -48 -94 -84 -148 -137 -143 -142 2 -3
25 9 50 26 24 17 49 31 54 31 5 0 22 6 38 14 16 8 39 17 51 21 19 5 22 3 16
-12 -6 -17 -5 -17 14 0 25 22 32 22 67 -6 26 -21 29 -30 32 -95 2 -43 0 -72
-6 -72 -6 0 -10 -6 -10 -14 0 -8 -7 -16 -15 -20 -8 -3 -15 -10 -15 -16 0 -6 6
-8 13 -5 6 4 4 0 -5 -8 -10 -8 -16 -16 -14 -18 10 -10 -30 -48 -41 -41 -9 6
-5 18 15 47 15 22 32 45 38 52 6 6 10 22 9 35 -1 17 -8 24 -29 26 -19 2 -26 0
-21 -7 3 -6 10 -9 15 -6 30 19 -2 -76 -42 -123 -8 -9 -18 -24 -22 -32 -15 -32
-36 -65 -37 -57 -1 4 -2 10 -3 15 -1 4 -5 13 -9 20 -5 7 4 40 24 82 28 60 33
67 46 54 8 -8 19 -11 25 -8 7 5 5 12 -6 20 -12 8 -16 19 -11 33 5 15 2 21 -10
21 -11 0 -14 6 -9 25 9 35 -2 31 -22 -7 -9 -18 -21 -36 -27 -39 -6 -4 -6 -13
1 -25 10 -18 11 -17 21 9 6 15 13 27 16 27 3 0 -2 -17 -11 -37 -9 -21 -21 -50
-27 -65 -6 -16 -18 -28 -25 -28 -11 0 -12 -3 -3 -14 9 -11 8 -17 -4 -29 -10
-11 -12 -18 -4 -22 7 -5 4 -14 -9 -29 -27 -29 -52 -80 -52 -106 0 -11 -8 -28
-17 -38 -10 -10 -24 -26 -32 -35 -12 -15 -12 -17 3 -11 15 6 15 4 -1 -29 -17
-33 -41 -42 -29 -11 8 22 -8 16 -23 -7 -8 -15 -9 -24 -2 -28 13 -9 9 -31 -12
-61 -9 -13 -17 -29 -17 -35 0 -6 -16 -28 -35 -50 -20 -21 -34 -43 -32 -48 3
-9 -72 -131 -119 -194 -21 -29 -26 -29 -99 7 -60 29 -75 31 -59 7 5 -7 1 -4
-9 6 -36 40 -27 7 15 -55 64 -93 64 -92 18 -157 -23 -31 -77 -105 -120 -166
-144 -199 -194 -313 -58 -132 118 156 291 408 321 463 33 64 162 245 179 252
5 2 8 7 8 12 0 4 27 48 60 96 126 188 170 245 182 238 5 -3 7 0 6 7 -2 7 7 18
20 24 12 5 22 17 22 26 0 9 7 19 15 23 8 3 15 13 15 23 0 10 17 43 38 74 l37
56 30 -19 c17 -10 46 -18 66 -18 24 0 42 -7 56 -22 l21 -23 -49 -130 c-27 -71
-99 -233 -160 -360 -182 -378 -280 -591 -310 -675 -11 -30 -23 -62 -26 -70 -3
-8 -7 -19 -9 -25 -5 -20 -156 -424 -204 -545 -66 -169 -90 -240 -80 -240 7 0
80 163 80 180 0 12 79 219 100 263 11 22 17 44 14 48 -3 5 -1 9 5 9 6 0 8 7 5
15 -4 8 -1 15 5 15 6 0 8 6 5 14 -7 18 42 127 57 124 6 -2 14 3 17 11 3 8 0
11 -7 7 -6 -4 -11 -5 -11 -2 0 15 55 136 61 136 5 0 6 -8 3 -17 -5 -16 -4 -16
5 -2 7 11 19 15 36 11 15 -2 25 0 25 7 0 6 -9 11 -21 11 -16 0 -19 4 -14 23 7
22 7 22 -9 2 -11 -15 -15 -16 -16 -5 0 37 16 36 68 -7 29 -23 49 -43 44 -43
-4 0 -14 6 -20 12 -10 10 -15 10 -22 -2 -7 -12 -3 -16 20 -21 17 -4 36 -12 44
-18 8 -6 18 -11 22 -9 5 1 19 -1 31 -6 15 -5 31 -1 48 10 23 15 28 15 36 3 7
-11 11 -11 17 -2 5 8 29 12 67 10 55 -2 60 -4 63 -26 2 -13 12 -26 24 -29 17
-4 19 -11 15 -43 -4 -28 -2 -36 8 -32 9 3 12 -2 9 -14 -2 -10 -15 -65 -29
-123 -25 -107 -42 -214 -50 -305 -4 -47 -2 -45 16 25 22 84 26 102 38 180 5
30 14 73 19 95 6 22 21 90 33 150 11 61 26 113 31 116 6 4 8 15 4 24 -5 15 45
358 89 605 9 47 25 146 36 220 11 74 29 196 40 270 24 165 22 157 40 136 7
-10 22 -26 32 -37 9 -10 17 -22 17 -26 0 -5 14 -24 31 -43 l30 -35 -20 41 -20
42 21 6 c12 3 23 4 23 3 1 -2 16 -55 52 -182 5 -18 4 -19 -12 -5 -17 14 -18
13 -12 -19 4 -18 7 -37 7 -42 0 -19 19 -8 22 14 5 24 12 -4 23 -96 4 -27 9
-46 12 -43 3 2 0 51 -7 108 -11 96 -16 149 -24 273 -2 28 -7 74 -11 103 -7 46
-5 52 10 52 13 0 16 6 13 28 -4 25 -1 27 28 26 25 -2 31 2 27 13 -5 12 -1 14
18 8 18 -5 20 -4 9 4 -8 5 -11 13 -7 17 11 12 30 -13 43 -56 9 -29 9 -40 0
-44 -8 -3 -7 -7 2 -13 16 -12 55 -122 48 -139 -7 -18 -30 -18 -46 1 -7 8 -18
15 -24 15 -6 0 0 -9 14 -20 14 -10 26 -25 26 -32 1 -7 2 -20 3 -28 1 -12 3
-12 10 -2 14 23 67 -49 81 -109 6 -30 27 -119 47 -198 40 -168 72 -319 79
-376 3 -22 9 -62 14 -90 5 -27 16 -102 25 -165 8 -63 18 -126 21 -140 6 -23 7
-24 14 -5 8 18 9 18 9 -5 1 -14 6 -32 12 -40 8 -11 9 -3 4 30 -3 24 -11 50
-18 58 -13 16 -17 92 -5 92 4 0 8 5 8 10 0 6 -6 9 -12 8 -7 -2 -13 6 -14 17 0
11 -6 52 -13 92 -7 40 -10 77 -6 82 3 6 2 19 -4 28 -6 13 -5 24 4 36 12 16 13
16 18 -3 3 -11 12 -20 21 -20 20 0 21 16 2 23 -24 9 -37 94 -42 272 -2 94 -9
193 -15 222 -13 63 -1 94 32 86 14 -4 20 -2 16 4 -4 6 23 20 63 34 39 13 70
27 70 31 0 20 17 4 44 -40 17 -26 42 -63 58 -83 15 -20 25 -39 21 -43 -3 -3 0
-6 7 -6 18 0 39 -31 40 -57 0 -16 4 -21 15 -17 15 6 20 -14 15 -61 -1 -16 1
-18 11 -7 17 16 29 15 29 -3 0 -8 4 -15 8 -15 4 0 21 -22 37 -50 17 -27 34
-50 38 -50 5 0 5 6 1 13 -27 42 -235 352 -308 456 -47 68 -86 129 -86 136 0 7
-7 15 -15 19 -8 3 -14 9 -13 13 2 4 -10 20 -25 35 -30 30 -34 43 -13 51 10 4
13 1 10 -7 -8 -21 12 -28 29 -11 20 19 25 19 29 -2 2 -13 7 -11 28 10 14 15
31 27 38 27 6 0 12 7 12 15 0 8 5 15 10 15 6 0 10 9 10 20 0 27 28 37 48 16
15 -15 15 -16 0 -16 -9 0 -20 -5 -23 -11 -9 -13 84 -1 102 13 8 6 26 0 55 -19
24 -15 45 -31 48 -34 3 -4 66 -48 140 -99 352 -238 497 -334 534 -352 23 -11
68 -35 100 -54 32 -19 61 -33 63 -31 3 4 -94 67 -102 67 -8 0 -224 140 -288
186 -34 24 -84 60 -112 78 -116 79 -307 231 -299 239 5 5 -71 57 -84 57 -4 0
-24 18 -44 40 -20 21 -48 42 -62 46 -22 5 -24 8 -14 30 13 28 26 31 34 7 12
-39 23 -48 63 -55 56 -10 118 -47 99 -60 -10 -8 -9 -9 4 -4 20 6 118 -68 118
-90 0 -8 7 -14 16 -14 9 0 29 -9 45 -21 16 -11 29 -18 29 -16 0 3 17 -12 38
-32 53 -50 112 -101 117 -101 3 0 26 -15 52 -34 27 -18 62 -42 78 -52 26 -16
28 -17 16 -1 -7 9 -28 26 -47 38 -19 11 -34 26 -34 33 0 15 -119 121 -126 113
-3 -3 12 -22 33 -42 33 -31 29 -29 -28 12 -36 26 -64 50 -62 52 2 3 9 -1 15
-7 14 -14 38 -16 38 -4 0 5 -26 20 -57 33 -52 22 -200 131 -220 162 -10 15
-40 30 -115 57 -32 12 -58 24 -58 27 0 3 7 3 15 0 8 -4 17 -2 20 3 4 6 -2 10
-12 10 -14 0 -15 2 -4 9 7 5 11 14 7 20 -4 7 -1 9 7 5 8 -3 18 0 23 7 4 8 3
10 -4 5 -7 -4 -12 -3 -12 2 0 12 27 23 33 14 2 -4 3 -2 1 4 -1 6 3 17 9 23 18
18 16 39 -3 44 -13 3 -22 -3 -30 -23 -15 -37 -71 -62 -85 -40 -11 18 -36 -18
-37 -55 -1 -40 2 -40 -63 -17 -62 22 -77 31 -69 43 3 5 10 7 15 4 5 -4 9 1 9
10 0 9 5 13 10 10 6 -3 10 -2 10 4 0 5 -8 15 -17 20 -15 9 -16 12 -4 20 8 5
21 7 30 4 12 -5 11 -1 -4 14 -23 23 -30 17 -57 -54 l-16 -43 27 -22 c15 -13
49 -38 75 -56 53 -37 55 -54 7 -105 -25 -28 -92 -68 -108 -66 -22 4 -43 -3
-64 -20 -19 -15 -21 -22 -12 -33 16 -19 -28 -153 -63 -189 -13 -14 -24 -30
-24 -36 0 -10 -22 -23 -40 -23 -12 0 -33 85 -26 107 11 35 -128 258 -174 279
-15 7 -45 9 -75 5 l-50 -6 -5 -80 c-4 -55 -1 -91 8 -114 16 -40 11 -47 -20
-27 -12 8 -44 20 -70 27 l-48 11 3 72 c2 80 13 74 -97 59 -45 -5 -49 -4 -42
13 4 10 12 44 18 74 11 55 10 56 -21 88 -18 18 -41 32 -52 32 -25 0 -101 -76
-115 -115 -15 -40 -24 -38 -39 10 -7 22 -22 58 -34 79 -17 33 -18 41 -6 50 11
9 6 21 -30 68 l-44 57 54 25 c29 15 70 26 90 26 25 0 38 5 42 18 4 9 11 20 16
24 33 22 3 86 -48 102 -11 4 -35 27 -54 51 -18 25 -40 45 -47 45 -8 0 -14 4
-14 10 0 5 -22 12 -50 16 -27 4 -50 9 -50 12 0 2 14 28 30 57 23 41 27 55 18
62 -22 17 -91 40 -140 47 -40 6 -48 5 -48 -9 0 -8 -10 -19 -22 -24 -28 -11
-68 -48 -68 -62 0 -6 -4 -8 -8 -5 -11 7 -38 -11 -30 -20 9 -9 79 33 96 57 7
11 25 19 40 19 17 0 23 -3 14 -8 -7 -5 5 -8 30 -8 36 1 41 -2 43 -21 1 -13 -2
-23 -6 -23 -10 0 -17 -49 -7 -52 10 -4 -134 -12 -214 -13 -31 0 -54 -3 -51 -7
2 -5 -11 -8 -29 -8 -18 0 -43 -3 -55 -6 -28 -8 -31 12 -3 21 25 8 26 31 3 44
-17 10 -17 10 -1 11 12 0 16 6 13 21 -5 24 10 59 25 59 5 0 6 -8 3 -17 -6 -15
-5 -16 9 -3 9 8 14 25 12 38 -3 12 0 22 6 22 5 0 10 -7 10 -15 0 -20 10 -19
25 2 7 9 28 18 46 19 19 1 36 3 39 3 14 4 -80 36 -195 66 -168 44 -226 60
-247 70 -15 6 -18 2 -18 -24 0 -21 -5 -31 -15 -31 -18 0 -19 12 -3 28 13 13 1
32 -23 35 -8 2 -18 5 -24 8 -5 3 -17 5 -25 4 -8 0 -18 3 -21 8 -7 11 -73 26
-139 34 -25 3 -49 9 -54 14 -6 5 -15 9 -20 9 -6 0 0 -9 14 -20z m262 -92 c-7
-7 -12 -8 -12 -2 0 6 3 14 7 17 3 4 9 5 12 2 2 -3 -1 -11 -7 -17z m213 -78
c-3 -5 -11 -10 -16 -10 -6 0 -7 5 -4 10 3 6 11 10 16 10 6 0 7 -4 4 -10z m145
6 c0 -2 -7 -7 -16 -10 -8 -3 -12 -2 -9 4 6 10 25 14 25 6z m-40 -194 c0 -4 -9
-8 -20 -9 -11 -1 -18 2 -15 8 7 11 35 12 35 1z m190 -81 c0 -3 -19 -6 -42 -7
l-42 0 29 12 c28 11 55 9 55 -5z m-206 0 c4 -5 23 -9 44 -9 20 1 59 -9 86 -21
42 -19 58 -21 106 -13 31 4 66 5 76 1 17 -7 17 -8 -3 -8 -13 -1 -23 -5 -23 -9
0 -5 -25 -16 -56 -26 -31 -10 -54 -20 -51 -22 2 -3 16 0 31 5 14 6 26 7 26 2
0 -5 -21 -16 -47 -24 -27 -8 -94 -30 -151 -48 -79 -25 -105 -30 -114 -21 -16
16 -31 15 -25 -2 5 -13 1 -13 -28 0 -19 8 -43 14 -54 14 -23 0 -36 -29 -20
-44 9 -8 11 -7 7 4 -4 11 2 15 22 16 l28 1 -26 -24 c-20 -18 -34 -23 -54 -19
-16 3 -28 1 -28 -4 0 -5 -7 -6 -17 -3 -11 4 -14 3 -9 -5 4 -7 3 -12 -3 -12 -5
0 -13 5 -16 10 -10 16 -21 12 -55 -20 -28 -27 -33 -28 -47 -14 -8 8 -13 18
-10 21 4 3 2 14 -3 24 -7 12 -7 20 0 24 5 3 10 11 10 17 0 6 -7 5 -17 -3 -15
-13 -15 -12 -4 9 7 12 19 21 27 20 8 -2 20 8 27 21 12 23 105 66 170 78 15 3
33 14 40 24 8 11 18 15 26 10 9 -6 6 -10 -11 -16 -19 -6 -20 -8 -6 -12 9 -2
27 1 40 7 22 11 22 10 4 -4 -11 -9 -16 -19 -12 -23 3 -4 18 5 33 19 22 22 24
30 14 42 -10 12 -8 15 16 14 43 -1 53 1 53 11 0 5 -8 12 -17 14 -16 4 -16 5
-1 6 9 0 19 -3 22 -8z m596 -68 c0 -7 -10 -12 -22 -11 -19 2 -23 8 -23 34 l0
33 23 -21 c12 -12 22 -27 22 -35z m-771 21 c-9 -8 -28 -17 -43 -18 -33 -4 -26
4 17 20 44 16 43 16 26 -2z m560 -19 c-15 -16 -127 -41 -137 -31 -3 3 4 6 16
6 12 0 22 5 22 10 0 6 17 10 38 10 20 0 44 5 52 10 22 14 26 12 9 -5z m195
-41 c9 -3 16 -13 16 -21 0 -9 8 -22 18 -29 15 -12 14 -13 -15 -14 -17 0 -35
-5 -38 -10 -4 -6 -12 -10 -18 -8 -20 3 -81 -13 -104 -28 -27 -17 -29 -12 -8
19 8 13 16 34 18 47 3 17 11 26 27 28 14 2 20 0 16 -7 -4 -6 0 -11 8 -11 9 0
21 9 28 20 13 21 26 24 52 14z m77 -11 c13 -16 12 -17 -3 -4 -17 13 -22 21
-14 21 2 0 10 -8 17 -17z m-233 -65 c-2 -5 -7 -9 -12 -8 -5 1 -12 -4 -17 -11
-14 -23 -20 -3 -8 25 10 20 15 23 26 14 7 -6 12 -15 11 -20z m-92 -26 c-17
-16 -18 -16 -5 5 7 12 15 20 18 17 3 -2 -3 -12 -13 -22z m-851 -14 c-4 -13
-18 -44 -31 -70 -26 -52 -29 -62 -14 -53 6 3 10 2 10 -3 0 -11 -30 -25 -38
-17 -5 4 69 165 76 165 2 0 0 -10 -3 -22z m900 -8 c3 -6 -1 -7 -9 -4 -18 7
-21 14 -7 14 6 0 13 -4 16 -10z m95 6 c0 -2 -9 -6 -20 -9 -11 -3 -18 -1 -14 4
5 9 34 13 34 5z m-780 -46 c0 -5 -5 -10 -11 -10 -5 0 -7 5 -4 10 3 6 8 10 11
10 2 0 4 -4 4 -10z m809 -74 c0 -7 -2 -6 -6 2 -2 6 -11 12 -19 12 -9 0 -12 5
-9 10 8 13 35 -6 34 -24z m-139 3 c0 -12 -47 -12 -54 0 -4 5 0 11 6 14 18 5
48 -3 48 -14z m70 1 c0 -5 -5 -10 -11 -10 -5 0 -7 5 -4 10 3 6 8 10 11 10 2 0
4 -4 4 -10z m-245 -99 c6 -10 -62 -67 -71 -59 -9 9 8 38 23 38 8 0 12 4 9 9
-4 5 0 12 6 14 20 8 26 8 33 -2z m355 -57 c0 -8 -4 -12 -10 -9 -5 3 -10 13
-10 21 0 8 5 12 10 9 6 -3 10 -13 10 -21z m-560 -14 c0 -5 -4 -10 -10 -10 -5
0 -10 5 -10 10 0 6 5 10 10 10 6 0 10 -4 10 -10z m789 1 c23 -15 -3 -20 -29
-5 -22 12 -23 13 -5 13 11 1 26 -3 34 -8z m-234 -21 c3 -5 -1 -10 -9 -10 -9 0
-16 5 -16 10 0 6 4 10 9 10 6 0 13 -4 16 -10z m180 -10 c4 -6 9 -8 13 -6 17
10 22 -148 6 -164 -9 -9 -19 -7 -40 7 -59 37 -64 44 -49 66 8 12 12 32 8 48
-4 24 -2 29 13 30 13 0 14 2 5 6 -11 5 -11 7 0 14 19 12 36 11 44 -1z m-945
-35 c-7 -8 -18 -15 -24 -15 -6 0 -2 7 8 15 25 19 32 19 16 0z m2020 5 c0 -5
-7 -7 -15 -4 -8 4 -15 8 -15 10 0 2 7 4 15 4 8 0 15 -4 15 -10z m100 -16 c0
-2 -9 0 -20 6 -11 6 -20 13 -20 16 0 2 9 0 20 -6 11 -6 20 -13 20 -16z m-77 1
c-3 -9 -8 -14 -10 -11 -3 3 -2 9 2 15 9 16 15 13 8 -4z m-2088 -5 c3 -5 -1
-10 -10 -10 -9 0 -13 5 -10 10 3 6 8 10 10 10 2 0 7 -4 10 -10z m848 -17 c14
5 14 2 2 -26 -19 -44 -30 -43 -30 3 -1 22 2 35 6 28 4 -6 14 -8 22 -5z m567 8
c0 -17 -18 -21 -24 -6 -3 9 0 15 9 15 8 0 15 -4 15 -9z m181 -170 c24 -42 25
-49 14 -81 l-12 -35 -8 40 c-5 22 -14 49 -21 60 -7 11 -17 40 -23 65 -9 44 -9
44 7 21 9 -14 29 -45 43 -70z m-731 69 c8 -5 11 -12 8 -16 -4 -4 -3 -15 3 -25
7 -15 6 -17 -6 -13 -8 4 -15 12 -15 19 0 8 -5 17 -12 21 -7 5 -9 2 -5 -9 4
-11 2 -14 -9 -10 -17 6 -18 15 -2 31 14 14 18 15 38 2z m48 -25 c-3 -3 -9 2
-12 12 -6 14 -5 15 5 6 7 -7 10 -15 7 -18z m187 -45 c3 -5 -1 -10 -9 -10 -9 0
-16 5 -16 10 0 6 4 10 9 10 6 0 13 -4 16 -10z m165 -30 c0 -5 -2 -10 -4 -10
-3 0 -8 5 -11 10 -3 6 -1 10 4 10 6 0 11 -4 11 -10z m46 -35 c-1 -41 -13 -48
-47 -29 -24 13 -24 13 -2 14 16 0 21 4 17 15 -4 8 -1 15 6 15 6 0 8 5 5 10 -3
6 0 10 8 10 9 0 13 -11 13 -35z m1349 -3 c-3 -3 -11 0 -18 7 -9 10 -8 11 6 5
10 -3 15 -9 12 -12z m-1315 -6 c0 -3 -4 -8 -10 -11 -5 -3 -10 -1 -10 4 0 6 5
11 10 11 6 0 10 -2 10 -4z m-675 -24 c0 -10 -23 -49 -49 -87 -27 -38 -50 -75
-53 -82 -3 -7 -9 -13 -14 -13 -15 0 -10 49 7 75 10 15 12 25 5 25 -17 0 -13
15 9 41 16 20 21 22 29 9 7 -10 5 -20 -6 -32 -10 -12 -12 -18 -4 -18 6 0 14 7
17 15 4 8 11 12 17 8 6 -3 7 -1 3 5 -4 6 3 25 15 42 27 35 26 35 24 12z m430
-3 c-1 -11 -8 -25 -16 -31 -11 -7 -11 -11 -1 -15 6 -2 12 -11 12 -18 0 -8 5
-17 11 -21 7 -4 10 8 9 37 -2 60 -2 62 14 47 9 -8 11 -17 5 -22 -12 -13 -12
-29 1 -21 6 3 10 -3 10 -15 0 -18 -26 -55 -103 -145 -4 -5 -1 7 7 27 20 46 20
52 1 44 -14 -5 -14 -2 0 23 8 16 13 43 10 60 -2 17 0 29 4 26 5 -2 13 7 19 20
14 30 19 32 17 4z m275 5 c0 -8 -5 -12 -10 -9 -6 4 -8 11 -5 16 9 14 15 11 15
-7z m430 -13 c0 -5 -9 -11 -21 -14 -16 -4 -18 -3 -8 9 13 16 29 19 29 5z m76
-15 c22 -22 17 -28 -16 -21 -20 4 -30 3 -30 -5 0 -6 5 -8 11 -4 20 12 28 -18
11 -44 l-16 -24 -17 23 c-14 19 -15 27 -6 38 10 12 8 13 -16 7 -19 -4 -26 -3
-22 4 3 5 14 10 24 10 9 0 26 7 37 15 24 18 23 18 40 1z m-269 -38 c-3 -8 -6
-5 -6 6 -1 11 2 17 5 13 3 -3 4 -12 1 -19z m330 -14 c-3 -3 -11 -6 -19 -8 -7
-1 -20 -6 -28 -11 -12 -7 -13 -6 -3 6 6 8 22 15 34 16 11 1 19 0 16 -3z m-134
-44 c4 -17 2 -18 -15 -9 -15 8 -22 8 -28 -1 -6 -9 -9 -9 -15 0 -4 7 -1 16 6
21 24 15 46 10 52 -11z m-799 -5 c-4 -8 -16 -15 -28 -15 -20 0 -20 1 4 14 14
8 26 14 27 15 1 1 0 -6 -3 -14z m666 -42 c0 -26 -1 -26 -14 -7 -11 14 -11 21
-3 26 17 11 17 11 17 -19z m100 -3 c0 -13 -6 -20 -17 -19 -11 0 -13 3 -5 6 6
2 12 11 12 19 0 8 2 14 5 14 3 0 5 -9 5 -20z m-1246 -5 c-6 -16 -24 -21 -24
-7 0 11 11 22 21 22 5 0 6 -7 3 -15z m1236 -68 c0 -18 -2 -19 -10 -7 -13 20
-13 43 0 35 6 -3 10 -16 10 -28z m-1250 13 c0 -5 -5 -10 -11 -10 -5 0 -7 5 -4
10 3 6 8 10 11 10 2 0 4 -4 4 -10z m413 -22 c-5 -27 -23 -40 -23 -17 0 13 20
52 25 47 2 -1 1 -15 -2 -30z m156 -179 c-3 -189 0 -183 -75 -138 -18 11 -53
20 -87 21 -31 1 -57 5 -57 8 0 4 14 19 31 36 17 16 39 44 51 62 21 34 58 61
58 42 0 -5 -6 -10 -13 -10 -7 0 -23 -21 -35 -47 l-21 -48 35 40 c19 22 41 51
48 65 20 37 29 97 16 105 -7 4 -3 14 11 26 12 10 26 16 31 13 5 -3 8 -78 7
-175z m-163 126 c9 -8 12 -20 9 -26 -4 -6 2 -17 14 -25 12 -8 21 -19 21 -24 0
-5 -23 -33 -50 -62 -41 -43 -52 -50 -60 -38 -5 8 -12 11 -16 7 -4 -4 1 -16 11
-27 17 -18 17 -20 2 -14 -11 4 -17 1 -17 -9 0 -8 -8 -21 -17 -28 -16 -13 -17
-12 -5 3 13 17 26 98 15 98 -10 0 -32 -32 -54 -77 -12 -24 -25 -43 -30 -43 -5
0 4 24 21 53 17 28 47 85 68 126 21 42 45 76 55 79 15 4 16 7 5 13 -11 7 -11
9 0 9 7 0 20 -7 28 -15z m91 -53 c0 -10 -6 -19 -13 -19 -9 0 -9 5 -1 19 7 10
13 18 14 18 1 0 1 -8 0 -18z m758 -42 c-3 -5 -11 -10 -16 -10 -6 0 -7 5 -4 10
3 6 11 10 16 10 6 0 7 -4 4 -10z m8 -80 c3 -12 0 -20 -8 -20 -8 0 -11 8 -8 20
3 11 7 20 8 20 1 0 5 -9 8 -20z m-971 -42 c-7 -7 -12 -8 -12 -2 0 14 12 26 19
19 2 -3 -1 -11 -7 -17z m-2562 2 c0 -5 -5 -10 -11 -10 -5 0 -7 5 -4 10 3 6 8
10 11 10 2 0 4 -4 4 -10z m2543 -59 c-5 -3 -14 -17 -20 -31 -11 -24 -12 -25
-12 -2 -1 26 -18 30 -24 5 -4 -14 -5 -12 -6 5 -1 16 5 22 19 22 11 0 25 9 32
20 11 18 13 18 16 4 2 -9 0 -19 -5 -23z m76 -8 c1 4 12 0 26 -9 13 -8 29 -13
35 -9 5 3 10 1 10 -5 0 -8 10 -9 28 -5 31 6 59 -15 47 -35 -3 -5 -2 -10 3 -10
7 0 32 -42 32 -54 0 -1 -21 -3 -47 -4 -74 -3 -101 -6 -97 -13 7 -12 -101 -47
-136 -44 -19 2 -43 4 -52 4 -37 2 -26 21 81 149 47 56 56 62 62 46 4 -10 8
-16 8 -11z m-146 -68 c-3 -9 -8 -14 -10 -11 -3 3 -2 9 2 15 9 16 15 13 8 -4z
m1085 -40 c0 -14 -4 -27 -8 -30 -4 -2 -6 8 -4 23 1 14 -3 33 -9 42 -10 13 -10
13 4 2 9 -7 17 -24 17 -37z m-1118 6 c-7 -14 -7 -20 2 -23 6 -2 9 -10 7 -16
-3 -10 -8 -10 -22 0 -16 12 -16 15 -2 36 20 27 30 29 15 3z m210 -96 c0 -2 -7
-5 -15 -9 -9 -3 -15 0 -15 9 0 9 6 12 15 9 8 -4 15 -7 15 -9z m54 -10 c-4 -8
0 -23 7 -32 13 -15 12 -15 -9 -4 -25 13 -46 6 -24 -8 10 -6 10 -10 -2 -20 -12
-10 -23 -9 -55 10 -45 25 -58 45 -30 45 11 0 19 -3 19 -7 0 -13 59 -2 75 14
20 21 26 21 19 2z m-329 -51 c-15 -25 -25 -50 -22 -57 2 -7 13 6 25 28 34 65
37 67 65 59 18 -4 27 -13 27 -26 0 -10 4 -16 10 -13 5 3 12 -5 16 -19 5 -21
34 -38 69 -40 21 -2 66 -53 59 -69 -3 -9 -2 -17 4 -17 20 0 21 -43 2 -71 -26
-36 -91 -46 -157 -24 -26 9 -64 17 -84 18 -21 1 -36 4 -34 7 2 4 -12 14 -31
23 -40 19 -50 38 -35 64 9 16 10 16 11 -4 0 -13 4 -23 9 -23 15 0 42 79 35
105 -7 27 33 118 48 109 5 -3 -3 -26 -17 -50z m149 40 c3 -8 2 -12 -4 -9 -6 3
-10 10 -10 16 0 14 7 11 14 -7z m36 -68 c0 -3 -4 -8 -10 -11 -5 -3 -10 -1 -10
4 0 6 5 11 10 11 6 0 10 -2 10 -4z m192 -18 c-7 -7 -12 -8 -12 -2 0 14 12 26
19 19 2 -3 -1 -11 -7 -17z m-422 -26 c0 -5 -7 -17 -15 -28 -14 -18 -14 -17 -4
9 12 27 19 34 19 19z m400 -132 c0 -5 -9 -10 -21 -10 -11 0 -17 5 -14 10 3 6
13 10 21 10 8 0 14 -4 14 -10z m-62 -32 c-2 -8 13 -15 37 -18 l40 -5 -37 -19
c-45 -22 -64 -17 -70 18 -4 17 0 26 11 29 9 3 17 5 19 6 1 0 1 -5 0 -11z
m-340 -24 c76 -12 249 -58 265 -69 16 -11 5 -13 -74 -9 -52 2 -108 6 -125 9
-32 6 -114 60 -114 76 0 6 5 7 10 4 6 -4 23 -8 38 -11z"/>
<path d="M3430 3599 c0 -5 5 -7 10 -4 6 3 10 8 10 11 0 2 -4 4 -10 4 -5 0 -10
-5 -10 -11z"/>
<path d="M3088 3493 c7 -3 16 -2 19 1 4 3 -2 6 -13 5 -11 0 -14 -3 -6 -6z"/>
<path d="M3200 3470 c0 -5 4 -10 9 -10 6 0 13 5 16 10 3 6 -1 10 -9 10 -9 0
-16 -4 -16 -10z"/>
<path d="M3080 3460 c0 -5 5 -10 10 -10 6 0 10 5 10 10 0 6 -4 10 -10 10 -5 0
-10 -4 -10 -10z"/>
<path d="M3920 3470 c0 -5 5 -10 10 -10 6 0 10 5 10 10 0 6 -4 10 -10 10 -5 0
-10 -4 -10 -10z"/>
<path d="M4241 2414 c0 -11 3 -14 6 -6 3 7 2 16 -1 19 -3 4 -6 -2 -5 -13z"/>
<path d="M4052 2436 c-8 -18 -8 -27 0 -32 6 -4 8 -3 4 4 -3 6 -1 14 5 18 6 3
15 0 20 -7 5 -8 9 -9 9 -3 0 5 -6 18 -13 28 -12 17 -14 16 -25 -8z"/>
<path d="M4051 2381 c-7 -5 -12 -14 -10 -20 2 -6 10 -2 17 9 14 22 13 23 -7
11z"/>
<path d="M4020 2340 c0 -5 5 -10 11 -10 5 0 7 5 4 10 -3 6 -8 10 -11 10 -2 0
-4 -4 -4 -10z"/>
<path d="M3996 2164 c-6 -16 0 -34 12 -34 4 0 7 11 7 25 0 28 -10 33 -19 9z"/>
<path d="M4880 4070 c0 -19 3 -21 12 -12 9 9 9 15 0 24 -9 9 -12 7 -12 -12z"/>
<path d="M3890 4068 c0 -18 18 -34 28 -24 3 4 -2 14 -11 23 -16 16 -17 16 -17
1z"/>
<path d="M4990 4070 c0 -5 7 -10 16 -10 8 0 12 5 9 10 -3 6 -10 10 -16 10 -5
0 -9 -4 -9 -10z"/>
<path d="M3643 4063 c-15 -5 -17 -23 -4 -23 5 0 11 7 15 15 3 8 4 15 3 14 -1
0 -8 -3 -14 -6z"/>
<path d="M5898 4063 c7 -3 16 -2 19 1 4 3 -2 6 -13 5 -11 0 -14 -3 -6 -6z"/>
<path d="M5820 4048 c-19 -6 -30 -12 -24 -14 5 -3 28 2 50 10 45 17 26 19 -26
4z"/>
<path d="M3880 4019 c0 -5 5 -7 10 -4 6 3 10 8 10 11 0 2 -4 4 -10 4 -5 0 -10
-5 -10 -11z"/>
<path d="M5758 4023 c7 -3 16 -2 19 1 4 3 -2 6 -13 5 -11 0 -14 -3 -6 -6z"/>
<path d="M5335 4000 c-8 -13 5 -13 25 0 13 8 13 10 -2 10 -9 0 -20 -4 -23 -10z"/>
<path d="M2996 3991 c-4 -7 -5 -15 -2 -18 9 -9 19 4 14 18 -4 11 -6 11 -12 0z"/>
<path d="M3886 3985 c-9 -26 -7 -32 5 -12 6 10 9 21 6 23 -2 3 -7 -2 -11 -11z"/>
<path d="M4832 3973 c-18 -7 -64 -54 -59 -60 3 -2 16 7 30 21 15 14 35 26 47
26 11 0 20 5 20 10 0 11 -16 12 -38 3z"/>
<path d="M3850 3910 c0 -5 5 -10 11 -10 5 0 7 5 4 10 -3 6 -8 10 -11 10 -2 0
-4 -4 -4 -10z"/>
<path d="M3230 3890 c0 -5 5 -10 10 -10 6 0 10 5 10 10 0 6 -4 10 -10 10 -5 0
-10 -4 -10 -10z"/>
<path d="M3653 3871 c-9 -26 -9 -29 6 -24 12 3 11 1 -3 -11 -16 -13 -17 -16
-4 -16 9 0 27 15 42 34 21 29 23 35 10 40 -29 11 -40 6 -51 -23z"/>
<path d="M3320 3860 c0 -5 5 -10 10 -10 6 0 10 5 10 10 0 6 -4 10 -10 10 -5 0
-10 -4 -10 -10z"/>
<path d="M3370 3859 c0 -5 5 -7 10 -4 6 3 10 8 10 11 0 2 -4 4 -10 4 -5 0 -10
-5 -10 -11z"/>
<path d="M3260 3840 c0 -5 5 -10 10 -10 6 0 10 5 10 10 0 6 -4 10 -10 10 -5 0
-10 -4 -10 -10z"/>
<path d="M5426 3825 c4 -8 8 -15 10 -15 2 0 4 7 4 15 0 8 -4 15 -10 15 -5 0
-7 -7 -4 -15z"/>
<path d="M5381 3760 c-1 -19 -3 -22 -11 -10 -15 24 -20 6 -12 -41 6 -33 5 -48
-5 -57 -11 -11 -13 -7 -13 20 0 25 -3 29 -10 18 -16 -25 -12 -57 10 -63 10 -3
21 0 24 7 3 7 5 7 5 -1 2 -24 21 -13 21 12 0 14 4 25 9 25 13 0 19 -69 6 -74
-5 -2 -2 -5 7 -5 19 -1 37 21 21 26 -6 2 -7 19 -2 46 4 23 3 49 -2 57 -6 11
-9 7 -10 -15 l-1 -30 -10 35 c-5 19 -14 44 -18 55 -8 18 -9 18 -9 -5z"/>
<path d="M3598 3713 c7 -3 16 -2 19 1 4 3 -2 6 -13 5 -11 0 -14 -3 -6 -6z"/>
<path d="M2931 3640 c-15 -22 -20 -37 -15 -53 7 -21 8 -20 17 8 13 40 26 55
48 55 11 0 19 5 19 10 0 23 -47 9 -69 -20z"/>
<path d="M3030 3660 c0 -5 7 -10 15 -10 8 0 15 5 15 10 0 6 -7 10 -15 10 -8 0
-15 -4 -15 -10z"/>
<path d="M2580 3622 c0 -5 7 -16 16 -23 14 -12 16 -11 13 5 -4 20 -29 35 -29
18z"/>
<path d="M5135 3611 c-12 -40 -14 -65 -5 -76 6 -7 4 -28 -4 -56 -26 -89 -28
-99 -11 -99 10 0 13 -5 9 -12 -4 -7 -3 -9 1 -5 14 12 15 41 2 50 -8 5 -5 7 7
5 16 -2 21 5 28 37 5 22 7 48 4 58 -5 19 28 25 39 7 3 -5 13 -10 21 -10 8 0
27 -11 42 -25 30 -28 52 -32 52 -10 0 8 -4 15 -10 15 -5 0 -10 5 -10 11 0 8 4
8 14 0 7 -6 21 -8 31 -5 11 5 24 -2 40 -20 l23 -27 20 22 20 21 18 -33 c17
-33 17 -33 27 -11 12 27 18 27 50 2 30 -24 41 -25 33 -4 -4 10 -1 14 6 11 7
-2 11 -12 10 -22 -3 -16 -1 -17 12 -6 9 8 16 19 16 26 0 14 -7 16 -141 41 -71
13 -96 21 -92 31 3 7 -2 13 -12 13 -9 0 -13 -4 -10 -10 8 -13 -80 -2 -122 15
-23 10 -31 19 -27 29 3 9 1 16 -6 16 -6 0 -9 -4 -6 -9 3 -4 -7 -8 -23 -7 -25
1 -28 4 -24 29 5 31 -12 37 -22 8z m285 -125 c0 -3 -4 -8 -10 -11 -5 -3 -10
-1 -10 4 0 6 5 11 10 11 6 0 10 -2 10 -4z"/>
<path d="M2827 3609 c8 -8 16 -8 30 0 16 9 14 10 -11 11 -22 0 -27 -3 -19 -11z"/>
<path d="M2690 3599 c0 -7 16 -8 48 -3 64 9 66 14 4 14 -30 0 -52 -4 -52 -11z"/>
<path d="M5305 3550 c-3 -5 1 -10 10 -10 9 0 13 5 10 10 -3 6 -8 10 -10 10 -2
0 -7 -4 -10 -10z"/>
<path d="M5545 3510 c3 -5 10 -10 16 -10 5 0 9 5 9 10 0 6 -7 10 -16 10 -8 0
-12 -4 -9 -10z"/>
<path d="M5645 3500 c3 -5 12 -7 20 -4 10 4 12 0 8 -16 -3 -12 -11 -19 -19
-16 -8 3 -11 0 -7 -10 4 -10 9 -12 16 -5 5 5 16 7 23 4 8 -3 14 0 14 7 0 6 -4
8 -10 5 -19 -12 -10 14 11 28 19 14 18 15 -21 15 -22 0 -38 -3 -35 -8z"/>
<path d="M5205 3480 c3 -5 8 -10 11 -10 2 0 4 5 4 10 0 6 -5 10 -11 10 -5 0
-7 -4 -4 -10z"/>
<path d="M5735 3459 c-4 -5 -10 -7 -15 -4 -4 3 -6 -4 -3 -15 6 -23 23 -26 42
-7 11 10 12 7 6 -13 -4 -14 -10 -31 -12 -37 -3 -7 0 -13 7 -13 6 0 14 9 17 21
5 18 11 20 39 14 21 -3 34 -2 34 5 0 5 16 10 35 10 19 0 35 4 35 9 0 4 -11 6
-25 3 -29 -5 -36 24 -7 31 11 3 8 5 -9 6 -14 0 -29 -2 -32 -6 -10 -10 -59 -11
-84 -2 -13 5 -25 4 -28 -2z"/>
<path d="M5500 3429 c0 -5 5 -7 10 -4 6 3 10 8 10 11 0 2 -4 4 -10 4 -5 0 -10
-5 -10 -11z"/>
<path d="M6070 3435 c0 -7 58 -35 72 -35 7 1 -5 10 -26 20 -42 21 -46 23 -46
15z"/>
<path d="M5317 3423 c-12 -12 -7 -22 8 -17 8 4 15 10 15 15 0 11 -14 12 -23 2z"/>
<path d="M5530 3421 c0 -6 4 -13 10 -16 6 -3 7 1 4 9 -7 18 -14 21 -14 7z"/>
<path d="M5580 3400 c0 -5 5 -10 11 -10 5 0 7 5 4 10 -3 6 -8 10 -11 10 -2 0
-4 -4 -4 -10z"/>
<path d="M5910 3401 c0 -6 11 -11 25 -11 18 0 26 -7 31 -25 3 -14 12 -25 19
-25 7 0 15 -4 17 -8 2 -5 15 -12 31 -16 21 -5 29 -2 35 11 8 19 43 27 52 12 4
-5 18 -10 32 -11 15 -1 25 -5 22 -9 -2 -4 -14 -5 -27 -3 -23 5 42 -28 82 -41
20 -6 23 -4 18 9 -5 13 -3 14 12 4 11 -7 26 -8 37 -3 27 12 38 12 46 0 5 -6
11 -6 19 2 7 7 10 15 7 19 -12 11 -182 53 -240 59 -10 0 -21 4 -24 8 -4 4 -22
7 -39 7 -17 0 -35 3 -39 7 -3 4 -14 8 -24 9 -9 1 -34 6 -54 9 -26 5 -38 4 -38
-4z m140 -62 c0 -5 -6 -9 -13 -9 -7 0 -13 9 -13 19 0 15 3 17 13 9 7 -6 13
-14 13 -19z"/>
<path d="M5402 3368 c-15 -15 -16 -32 -2 -23 6 3 10 1 10 -4 0 -7 14 -9 35 -6
19 2 57 5 85 6 28 2 54 7 57 12 3 5 -34 6 -87 2 -81 -5 -92 -4 -87 9 8 19 5
20 -11 4z"/>
<path d="M2820 3360 c-9 -6 -10 -10 -3 -10 6 0 15 5 18 10 8 12 4 12 -15 0z"/>
<path d="M5770 3340 c0 -10 9 -24 21 -30 23 -13 69 -6 69 10 0 11 -2 11 -40
15 -13 1 -26 8 -28 14 -6 18 -22 12 -22 -9z"/>
<path d="M6092 3316 c1 -10 8 -17 13 -17 15 1 12 24 -3 29 -9 3 -13 -2 -10
-12z"/>
<path d="M5250 3290 c0 -5 5 -10 11 -10 5 0 7 5 4 10 -3 6 -8 10 -11 10 -2 0
-4 -4 -4 -10z"/>
<path d="M6405 3285 c35 -16 55 -19 55 -6 0 5 -14 11 -31 15 -48 9 -57 6 -24
-9z"/>
<path d="M6474 3279 c-9 -15 28 -25 151 -44 17 -3 48 -9 70 -14 164 -38 314
-72 335 -75 14 -2 32 -6 40 -9 30 -11 154 -36 159 -32 9 9 -6 14 -164 50 -88
21 -185 43 -215 50 -30 7 -107 24 -170 38 -63 14 -134 30 -158 35 -25 6 -44 6
-48 1z"/>
<path d="M5791 3254 c-7 -8 -11 -18 -8 -21 9 -8 86 8 94 19 4 8 -4 9 -25 5
-19 -4 -32 -2 -32 3 0 14 -13 12 -29 -6z"/>
<path d="M2800 3229 c0 -5 5 -7 10 -4 6 3 10 8 10 11 0 2 -4 4 -10 4 -5 0 -10
-5 -10 -11z"/>
<path d="M2470 3220 c-9 -6 -10 -10 -3 -10 6 0 15 5 18 10 8 12 4 12 -15 0z"/>
<path d="M3472 3130 c0 -14 2 -19 5 -12 2 6 2 18 0 25 -3 6 -5 1 -5 -13z"/>
<path d="M3820 3100 c0 -19 3 -21 12 -12 9 9 9 15 0 24 -9 9 -12 7 -12 -12z"/>
<path d="M7250 3100 c20 -13 40 -13 40 0 0 6 -12 10 -27 10 -22 0 -25 -2 -13
-10z"/>
<path d="M3270 3091 c0 -14 18 -23 31 -15 8 4 7 9 -2 15 -18 11 -29 11 -29 0z"/>
<path d="M7305 3090 c3 -5 10 -10 16 -10 5 0 9 5 9 10 0 6 -7 10 -16 10 -8 0
-12 -4 -9 -10z"/>
<path d="M3345 3073 c-18 -14 -18 -15 -2 -9 10 3 23 6 28 6 5 0 9 5 9 10 0 14
-12 12 -35 -7z"/>
<path d="M3846 3075 c-4 -12 -1 -16 11 -13 18 3 21 20 5 26 -5 1 -12 -4 -16
-13z"/>
<path d="M7355 3080 c3 -5 13 -10 21 -10 8 0 12 5 9 10 -3 6 -13 10 -21 10 -8
0 -12 -4 -9 -10z"/>
<path d="M7410 3070 c0 -5 5 -10 11 -10 5 0 7 5 4 10 -3 6 -8 10 -11 10 -2 0
-4 -4 -4 -10z"/>
<path d="M3761 3033 c-9 -25 -10 -38 -3 -41 7 -2 6 -19 -4 -53 -8 -28 -13 -56
-11 -62 6 -19 38 52 42 92 1 20 4 41 5 46 5 20 0 55 -8 55 -4 0 -14 -17 -21
-37z"/>
<path d="M5431 3054 c6 -8 18 -14 25 -14 8 0 14 -5 14 -11 0 -5 5 -7 10 -4 18
11 10 22 -26 33 -30 9 -33 8 -23 -4z"/>
<path d="M7595 3031 c6 -5 30 -13 55 -16 55 -8 34 9 -25 19 -27 5 -37 4 -30
-3z"/>
<path d="M3460 3011 c0 -6 5 -13 10 -16 6 -3 10 1 10 9 0 9 -4 16 -10 16 -5 0
-10 -4 -10 -9z"/>
<path d="M4650 2964 c0 -8 5 -12 10 -9 6 4 8 11 5 16 -9 14 -15 11 -15 -7z"/>
<path d="M2340 2940 c0 -11 5 -20 10 -20 6 0 10 9 10 20 0 11 -4 20 -10 20 -5
0 -10 -9 -10 -20z"/>
<path d="M2985 2950 c3 -5 8 -10 11 -10 2 0 4 5 4 10 0 6 -5 10 -11 10 -5 0
-7 -4 -4 -10z"/>
<path d="M3445 2895 c-28 -24 -45 -44 -40 -44 12 0 99 78 94 84 -3 2 -27 -16
-54 -40z"/>
<path d="M5185 2920 c3 -5 11 -10 16 -10 6 0 7 5 4 10 -3 6 -11 10 -16 10 -6
0 -7 -4 -4 -10z"/>
<path d="M2310 2910 c0 -5 5 -10 10 -10 6 0 10 5 10 10 0 6 -4 10 -10 10 -5 0
-10 -4 -10 -10z"/>
<path d="M2360 2851 c0 -26 4 -40 10 -36 6 3 8 20 5 38 -9 47 -15 46 -15 -2z"/>
<path d="M3679 2816 c-21 -20 -69 -99 -69 -112 0 -2 5 -4 10 -4 6 0 10 6 10
13 0 8 18 39 40 70 43 62 45 69 9 33z"/>
<path d="M3715 2810 c-3 -5 -1 -10 4 -10 6 0 11 5 11 10 0 6 -2 10 -4 10 -3 0
-8 -4 -11 -10z"/>
<path d="M4680 2812 c0 -12 40 -33 51 -26 6 3 -1 12 -16 20 -31 16 -35 17 -35
6z"/>
<path d="M3940 2771 c0 -6 -6 -9 -12 -7 -7 1 -10 1 -5 -1 4 -3 7 -11 7 -19 0
-8 6 -14 13 -14 15 0 20 37 6 45 -5 4 -9 2 -9 -4z"/>
<path d="M2520 2750 c0 -5 5 -10 11 -10 5 0 7 5 4 10 -3 6 -8 10 -11 10 -2 0
-4 -4 -4 -10z"/>
<path d="M2595 2750 c-9 -15 54 -81 115 -122 44 -29 44 -29 15 -2 -16 14 -47
42 -68 60 -21 18 -40 40 -41 48 -3 22 -13 29 -21 16z"/>
<path d="M4390 2713 c0 -22 16 -72 36 -118 57 -126 109 -265 124 -330 7 -33
19 -85 26 -115 8 -30 14 -62 14 -72 0 -10 4 -18 8 -18 5 0 7 15 5 33 -8 65
-35 222 -39 229 -3 5 0 8 6 8 6 0 0 15 -14 33 -15 19 -26 41 -26 51 0 9 -7 33
-17 54 -9 20 -15 40 -15 45 1 4 -2 7 -8 7 -13 0 -54 83 -74 150 -15 51 -15 56
1 67 15 12 15 13 -5 13 -19 0 -22 -6 -22 -37z"/>
<path d="M2325 2720 c-3 -5 -1 -10 4 -10 6 0 11 5 11 10 0 6 -2 10 -4 10 -3 0
-8 -4 -11 -10z"/>
<path d="M2420 2700 c0 -5 5 -10 11 -10 5 0 7 5 4 10 -3 6 -8 10 -11 10 -2 0
-4 -4 -4 -10z"/>
<path d="M3611 2653 c-1 -48 7 -75 20 -67 5 3 6 11 2 17 -4 7 -10 30 -14 52
l-6 40 -2 -42z"/>
<path d="M2321 2666 c-10 -12 -8 -13 8 -9 12 3 18 9 15 14 -7 12 -10 11 -23
-5z"/>
<path d="M4505 2648 c4 -13 11 -27 16 -33 5 -5 4 5 -2 23 -12 36 -24 44 -14
10z"/>
<path d="M4440 2633 c1 -5 9 -24 20 -43 23 -41 27 -23 5 20 -15 29 -25 38 -25
23z"/>
<path d="M3553 2472 c-13 -15 -23 -34 -23 -42 0 -8 10 0 21 18 12 17 28 32 36
32 8 0 11 5 8 10 -10 15 -18 12 -42 -18z"/>
<path d="M4543 2466 c3 -8 9 -31 13 -50 3 -20 11 -39 16 -42 7 -4 7 6 3 27
-10 45 -23 79 -31 79 -3 0 -4 -6 -1 -14z"/>
<path d="M2930 2415 c19 -19 36 -35 38 -35 8 0 -53 69 -62 69 -6 1 5 -15 24
-34z"/>
<path d="M6257 2439 c7 -7 15 -10 18 -7 3 3 -2 9 -12 12 -14 6 -15 5 -6 -5z"/>
<path d="M3520 2400 c0 -5 7 -10 16 -10 8 0 12 5 9 10 -3 6 -10 10 -16 10 -5
0 -9 -4 -9 -10z"/>
<path d="M6330 2397 c0 -8 7 -20 15 -27 8 -7 15 -9 15 -4 0 4 12 -3 26 -17 24
-22 26 -22 22 -4 -2 11 -13 24 -25 30 -11 6 -28 17 -37 24 -13 11 -16 11 -16
-2z"/>
<path d="M1700 2366 c0 -9 5 -16 10 -16 6 0 10 4 10 9 0 6 -4 13 -10 16 -5 3
-10 -1 -10 -9z"/>
<path d="M4590 2351 c0 -11 5 -23 10 -26 6 -4 10 5 10 19 0 14 -4 26 -10 26
-5 0 -10 -9 -10 -19z"/>
<path d="M1585 2320 c-19 -8 -19 -9 3 -9 12 -1 22 4 22 9 0 6 -1 10 -2 9 -2 0
-12 -4 -23 -9z"/>
<path d="M4607 2250 c10 -85 24 -117 18 -42 -3 35 -9 71 -15 80 -7 12 -8 1 -3
-38z"/>
<path d="M1151 2101 c-8 -5 -9 -11 -3 -15 5 -3 12 1 16 9 6 17 6 18 -13 6z"/>
<path d="M5046 2101 c-4 -5 -2 -12 3 -15 5 -4 12 -2 15 3 4 5 2 12 -3 15 -5 4
-12 2 -15 -3z"/>
<path d="M919 2049 c-12 -11 -29 -17 -37 -14 -8 3 -20 -3 -27 -12 -8 -10 -17
-18 -22 -19 -4 0 -25 -8 -47 -17 -21 -9 -42 -17 -46 -17 -5 0 -10 -3 -12 -7
-2 -5 -37 -23 -78 -42 -126 -58 -180 -86 -180 -94 0 -5 17 0 38 11 110 57 132
64 150 50 15 -12 16 -11 3 4 -11 15 -11 19 0 23 8 2 25 9 39 14 14 5 28 8 31
7 4 0 15 6 25 15 11 9 30 20 44 24 14 4 33 13 44 21 10 7 24 10 31 8 7 -3 15
2 18 10 4 9 15 16 25 16 23 0 48 25 34 34 -5 3 -20 -3 -33 -15z"/>
<path d="M4581 1969 c-1 -23 3 -39 9 -39 6 0 8 -4 5 -10 -3 -5 -3 -10 2 -10 9
0 38 -60 53 -110 8 -29 9 -22 6 44 -4 69 -8 82 -30 103 -14 13 -23 29 -20 37
3 7 -1 16 -9 19 -9 3 -14 -6 -16 -34z"/>
<path d="M4990 1990 c0 -5 5 -10 10 -10 6 0 10 5 10 10 0 6 -4 10 -10 10 -5 0
-10 -4 -10 -10z"/>
<path d="M760 1940 c0 -5 5 -10 11 -10 5 0 7 5 4 10 -3 6 -8 10 -11 10 -2 0
-4 -4 -4 -10z"/>
<path d="M4991 1918 c-1 -16 4 -28 9 -28 12 0 12 8 0 35 -8 18 -9 17 -9 -7z"/>
<path d="M4575 1890 c-3 -5 1 -10 10 -10 9 0 13 5 10 10 -3 6 -8 10 -10 10 -2
0 -7 -4 -10 -10z"/>
<path d="M5698 1864 c6 -11 18 -28 27 -39 15 -19 15 -18 1 12 -9 17 -21 35
-27 39 -8 4 -8 1 -1 -12z"/>
<path d="M4566 1832 c-4 -7 -7 -44 -7 -82 0 -52 6 -82 25 -122 14 -29 25 -46
25 -38 1 8 -6 28 -15 45 -10 19 -11 31 -5 33 15 5 13 66 -2 127 -8 30 -16 45
-21 37z"/>
<path d="M425 1814 c-11 -8 -25 -12 -31 -10 -7 3 -18 -2 -25 -10 -7 -8 -18
-13 -25 -10 -14 5 -27 -21 -18 -35 3 -6 14 -1 24 11 9 11 21 20 25 20 15 0 84
35 85 43 0 11 -13 8 -35 -9z"/>
<path d="M5742 1793 c12 -29 54 -93 60 -93 4 0 -6 23 -23 50 -17 28 -33 50
-36 50 -2 0 -3 -3 -1 -7z"/>
<path d="M290 1750 c0 -5 5 -10 10 -10 6 0 10 5 10 10 0 6 -4 10 -10 10 -5 0
-10 -4 -10 -10z"/>
<path d="M210 1720 c0 -6 -7 -10 -15 -10 -8 0 -15 -5 -15 -11 0 -6 9 -8 23 -4
32 10 41 21 23 28 -9 4 -16 2 -16 -3z"/>
<path d="M150 1679 c0 -5 5 -7 10 -4 6 3 10 8 10 11 0 2 -4 4 -10 4 -5 0 -10
-5 -10 -11z"/>
<path d="M5810 1686 c0 -10 82 -146 92 -152 5 -3 -12 30 -38 73 -48 82 -54 91
-54 79z"/>
<path d="M88 1659 c-21 -11 -38 -22 -38 -26 0 -3 3 -3 7 0 3 4 13 1 21 -6 13
-10 14 -9 8 1 -5 8 2 16 23 23 17 6 31 15 31 20 0 13 -10 11 -52 -12z"/>
<path d="M4625 1616 c2 -22 9 -44 14 -49 7 -7 7 3 0 29 -15 57 -20 64 -14 20z"/>
<path d="M4665 1590 c-3 -5 -1 -10 4 -10 6 0 11 5 11 10 0 6 -2 10 -4 10 -3 0
-8 -4 -11 -10z"/>
<path d="M4570 1585 c1 -33 32 -146 49 -180 12 -21 21 -45 21 -52 0 -6 4 -14
9 -17 12 -8 -12 83 -33 126 -9 18 -19 51 -22 73 -4 35 -24 76 -24 50z"/>
<path d="M5009 1576 c-5 -6 5 -136 17 -216 6 -36 8 -40 13 -22 3 13 7 -36 8
-108 1 -85 6 -136 13 -146 9 -10 9 -14 1 -14 -15 0 -14 -27 1 -36 7 -5 8 -3 4
5 -5 7 0 18 10 26 12 9 14 14 6 15 -7 0 -12 6 -11 13 1 6 -1 20 -6 30 -4 10
-5 33 -2 52 3 19 1 37 -4 41 -5 3 -6 11 -2 17 9 15 4 212 -7 257 -4 19 -8 26
-9 16 -2 -34 -19 -4 -23 37 -2 22 -5 36 -9 33z"/>
<path d="M3621 1552 c-6 -12 -11 -27 -11 -34 1 -7 8 0 16 15 9 16 13 31 11 34
-3 2 -10 -4 -16 -15z"/>
<path d="M4670 1555 c0 -8 -7 -15 -15 -15 -19 0 -19 -5 5 -65 l19 -50 1 73 c0
39 -2 72 -5 72 -3 0 -5 -7 -5 -15z"/>
<path d="M5910 1513 c0 -5 10 -19 21 -33 l20 -25 -16 33 c-15 30 -25 41 -25
25z"/>
<path d="M5965 1420 c9 -16 18 -30 21 -30 2 0 -2 14 -11 30 -9 17 -18 30 -21
30 -2 0 2 -13 11 -30z"/>
<path d="M4680 1404 c0 -8 5 -12 10 -9 6 4 8 11 5 16 -9 14 -15 11 -15 -7z"/>
<path d="M4681 1347 c0 -24 -5 -36 -12 -32 -6 4 -5 -3 3 -14 13 -22 13 -22 16
4 2 14 1 37 -1 53 -3 21 -4 19 -6 -11z"/>
<path d="M6001 1360 c9 -14 24 -40 33 -58 10 -19 19 -32 22 -29 6 6 -45 95
-59 104 -7 4 -5 -4 4 -17z"/>
<path d="M6066 1245 c4 -8 11 -15 16 -15 6 0 5 6 -2 15 -7 8 -14 15 -16 15 -2
0 -1 -7 2 -15z"/>
<path d="M6190 1040 c6 -11 13 -20 16 -20 2 0 0 9 -6 20 -6 11 -13 20 -16 20
-2 0 0 -9 6 -20z"/>
<path d="M5050 1010 c0 -5 5 -10 10 -10 6 0 10 5 10 10 0 6 -4 10 -10 10 -5 0
-10 -4 -10 -10z"/>
<path d="M6217 990 c3 -11 9 -20 15 -20 5 0 4 9 -2 20 -6 11 -12 20 -14 20 -2
0 -2 -9 1 -20z"/>
<path d="M6271 903 c18 -32 43 -73 55 -92 13 -19 21 -38 18 -43 -3 -4 2 -11
10 -14 9 -3 16 -12 16 -19 0 -6 10 -20 21 -31 16 -14 14 -6 -11 36 -18 30 -41
67 -51 82 -11 14 -19 28 -19 31 0 8 -62 107 -67 107 -3 0 10 -26 28 -57z"/>
<path d="M3257 683 c-4 -3 -7 -11 -7 -17 0 -6 5 -5 12 2 6 6 9 14 7 17 -3 3
-9 2 -12 -2z"/>
<path d="M6416 667 c3 -10 9 -15 12 -12 3 3 0 11 -7 18 -10 9 -11 8 -5 -6z"/>
<path d="M6450 601 c0 -5 7 -15 17 -22 15 -13 15 -12 4 9 -12 23 -21 28 -21
13z"/>
<path d="M3211 560 c-28 -72 -49 -135 -47 -137 7 -7 68 136 64 153 -3 15 -7
11 -17 -16z"/>
<path d="M3146 395 c-9 -26 -7 -32 5 -12 6 10 9 21 6 23 -2 3 -7 -2 -11 -11z"/>
<path d="M3085 233 c-8 -20 -13 -38 -10 -41 3 -3 5 -3 5 0 0 3 7 22 15 42 8
20 13 36 10 36 -2 0 -12 -16 -20 -37z"/>
<path d="M3036 105 c-9 -26 -7 -32 5 -12 6 10 9 21 6 23 -2 3 -7 -2 -11 -11z"/>
</g>
</svg>
