<svg id="ebwytp4YIdu1" xmlns="http://www.w3.org/2000/svg" xmlns:xlink="http://www.w3.org/1999/xlink" viewBox="0 0 400 467" shape-rendering="geometricPrecision" text-rendering="geometricPrecision">
<style><![CDATA[
#ebwytp4YIdu4_tr {animation: ebwytp4YIdu4_tr__tr 400ms linear infinite normal forwards}@keyframes ebwytp4YIdu4_tr__tr { 0% {transform: translate(150.657265px,178.599487px) rotate(0deg)} 50% {transform: translate(150.657265px,178.599487px) rotate(-7.525869deg)} 100% {transform: translate(150.657265px,178.599487px) rotate(0deg)}} #ebwytp4YIdu5_tr {animation: ebwytp4YIdu5_tr__tr 400ms linear infinite normal forwards}@keyframes ebwytp4YIdu5_tr__tr { 0% {transform: translate(252.242569px,184.027813px) rotate(0deg)} 50% {transform: translate(252.242569px,184.027813px) rotate(9.865504deg)} 100% {transform: translate(252.242569px,184.027813px) rotate(0deg)}} #ebwytp4YIdu7_to {animation: ebwytp4YIdu7_to__to 400ms linear infinite normal forwards}@keyframes ebwytp4YIdu7_to__to { 0% {transform: translate(329.31924px,101.931792px)} 50% {transform: translate(301.818718px,60.703402px)} 100% {transform: translate(329.31924px,101.931792px)}} #ebwytp4YIdu8_tr {animation: ebwytp4YIdu8_tr__tr 400ms linear infinite normal forwards}@keyframes ebwytp4YIdu8_tr__tr { 0% {transform: translate(277.228771px,132.993486px) rotate(59.652715deg)} 50% {transform: translate(277.228771px,132.993486px) rotate(2.689063deg)} 100% {transform: translate(277.228771px,132.993486px) rotate(59.652715deg)}} #ebwytp4YIdu9_tr {animation: ebwytp4YIdu9_tr__tr 400ms linear infinite normal forwards}@keyframes ebwytp4YIdu9_tr__tr { 0% {transform: translate(276.553509px,189.687684px) rotate(0deg)} 50% {transform: translate(276.553509px,189.687684px) rotate(-59.144538deg)} 100% {transform: translate(276.553509px,189.687684px) rotate(0deg)}} #ebwytp4YIdu10_to {animation: ebwytp4YIdu10_to__to 400ms linear infinite normal forwards}@keyframes ebwytp4YIdu10_to__to { 0% {offset-distance: 0%} 50% {offset-distance: 49.981825%} 100% {offset-distance: 100%}} #ebwytp4YIdu11_tr {animation: ebwytp4YIdu11_tr__tr 400ms linear infinite normal forwards}@keyframes ebwytp4YIdu11_tr__tr { 0% {transform: translate(271.223008px,312.729014px) rotate(0deg)} 50% {transform: translate(271.223008px,312.729014px) rotate(-67.081559deg)} 100% {transform: translate(271.223008px,312.729014px) rotate(0deg)}} #ebwytp4YIdu12_to {animation: ebwytp4YIdu12_to__to 400ms linear infinite normal forwards}@keyframes ebwytp4YIdu12_to__to { 0% {offset-distance: 0%} 50% {offset-distance: 49.96308%} 100% {offset-distance: 100%}} #ebwytp4YIdu13_to {animation: ebwytp4YIdu13_to__to 400ms linear infinite normal forwards}@keyframes ebwytp4YIdu13_to__to { 0% {offset-distance: 0%} 50% {offset-distance: 50.014697%} 100% {offset-distance: 100%}} #ebwytp4YIdu14_tr {animation: ebwytp4YIdu14_tr__tr 400ms linear infinite normal forwards}@keyframes ebwytp4YIdu14_tr__tr { 0% {transform: translate(110px,296.68963px) rotate(44.844029deg)} 50% {transform: translate(110px,296.68963px) rotate(2.022497deg)} 100% {transform: translate(110px,296.68963px) rotate(44.844029deg)}} #ebwytp4YIdu15_to {animation: ebwytp4YIdu15_to__to 400ms linear infinite normal forwards}@keyframes ebwytp4YIdu15_to__to { 0% {offset-distance: 0%} 50% {offset-distance: 50.719925%} 100% {offset-distance: 100%}} #ebwytp4YIdu15_tr {animation: ebwytp4YIdu15_tr__tr 400ms linear infinite normal forwards}@keyframes ebwytp4YIdu15_tr__tr { 0% {transform: rotate(12.755526deg)} 50% {transform: rotate(-34.497282deg)} 100% {transform: rotate(12.755526deg)}} #ebwytp4YIdu16_tr {animation: ebwytp4YIdu16_tr__tr 400ms linear infinite normal forwards}@keyframes ebwytp4YIdu16_tr__tr { 0% {transform: translate(121.593px,176.729675px) rotate(55.998609deg)} 50% {transform: translate(121.593px,176.729675px) rotate(0.492653deg)} 100% {transform: translate(121.593px,176.729675px) rotate(55.998609deg)}} #ebwytp4YIdu17_tr {animation: ebwytp4YIdu17_tr__tr 400ms linear infinite normal forwards}@keyframes ebwytp4YIdu17_tr__tr { 0% {transform: translate(137.026962px,121.715672px) rotate(0deg)} 50% {transform: translate(137.026962px,121.715672px) rotate(-79.521952deg)} 100% {transform: translate(137.026962px,121.715672px) rotate(0deg)}} #ebwytp4YIdu18_to {animation: ebwytp4YIdu18_to__to 400ms linear infinite normal forwards}@keyframes ebwytp4YIdu18_to__to { 0% {transform: translate(141.196018px,38.794261px)} 50% {transform: translate(91.749977px,94.090031px)} 100% {transform: translate(141.196018px,38.794261px)}} #ebwytp4YIdu18_tr {animation: ebwytp4YIdu18_tr__tr 400ms linear infinite normal forwards}@keyframes ebwytp4YIdu18_tr__tr { 0% {transform: rotate(-1.476103deg)} 50% {transform: rotate(19.01996deg)} 100% {transform: rotate(-1.476103deg)}}
]]></style>
<g clip-path="url(#ebwytp4YIdu19)"><g><g id="ebwytp4YIdu4_tr" transform="translate(150.657265,178.599487) rotate(0)"><path d="M153.268,177.59c-3.656,1.971-6.215,5.473-7.788,10.581-1.133,3.758-1.279,12.988-.255,19.337c1.608,10.325,1.828,12.003,2.34,18.059.329,3.393.731,9.523.95,13.573.093,2.08.234,4.822.373,7.547v.001c.001.003.001.006.001.008.134,2.625.268,5.234.357,7.22.805,15.287,1.792,25.247,3.328,32.872.95,4.78,1.206,5.364,2.157,5.108.475-.146.695-.401.585-.803-1.316-4.487-1.499-20.066-.439-33.784.366-4.634.658-11.602.658-15.506c0-7.954-.402-10.909-2.961-21.745-3.072-13.061-3.949-21.015-2.962-27.546.585-4.013.878-4.67,3.912-8.427c2.999-3.722,3.657-5.035,3.181-6.422-.475-1.35-1.097-1.35-3.437-.073Z" transform="translate(-150.657265,-178.599482)"/></g><g id="ebwytp4YIdu5_tr" transform="translate(252.242569,184.027813) rotate(0)"><path d="M246.504,182.297c-.512.146-1.097.657-1.353,1.131-.438.875-.365.912,2.011,2.043c7.094,3.284,9.946,8.063,9.946,16.564c0,5.144-.768,9.851-3.255,20.322-2.266,9.449-3.875,17.439-4.46,22.109-.512,4.342-.256,15.506.585,25.977.914,11.383.512,13.682-4.315,24.81-3.583,8.282-4.168,11.419-2.888,15.506l.658,1.97l1.682-2.518c2.194-3.356,2.559-4.086,4.058-8.391c1.244-3.649,2.158-7.625,2.816-12.405.183-1.423.512-9.96.694-18.972.622-28.859.951-31.814,5.192-46.444c3.62-12.515,4.388-16.929,4.388-24.482c0-5.034-.037-5.253-.951-6.384-.512-.621-1.938-2.554-3.144-4.342-2.486-3.502-3.803-4.779-5.996-5.764-1.755-.767-4.425-1.132-5.668-.73Z" transform="translate(-252.242531,-184.027799)"/></g><path d="M140.837,137.822c2.596,2.518,4.278,4.524,4.973,5.838c1.133,2.225,1.206,3.685.841,14.958-.147,4.561-.074,5.072.694,6.75.439.985,1.097,2.08,1.426,2.444.329.365.512.73.439.803-.475.401-5.996,3.138-6.399,3.138-.841,0-4.241-2.992-4.607-4.05-.182-.584-.621-1.058-.914-1.058-.606,0-5.973.958-12.027,2.1c0,0,1.973,2.498-1.026,5.963-2.998,3.466-2.998,7.151-2.998,7.151l.914,1.24c.549.657,2.487,2.956,4.351,5.108l3.401,3.941-1.463,2.882c-1.755,3.466-3.4,8.756-4.205,13.572-1.243,7.26-1.426,12.368-1.097,28.64.366,18.279.366,30.392,0,33.785-.219,2.153-.365,2.445-1.389,3.028-1.974,1.168-6.106,5.363-7.788,7.881-1.587,2.375-2.984,5.288-3.963,8.124c0,0,2.263,0,3.263,2.675.771,2.064,4,.325,4.954,2.7s3.936,5.838,3.936,5.838h1.755c.987,0,2.084-.11,2.487-.219.658-.183.767.146,1.389,3.904.731,4.378,2.852,11.346,4.461,14.593c1.791,3.576,4.972,7.99,7.824,10.873c2.742,2.772,8.007,6.968,8.775,6.968.22,0,.622.474.914,1.022.293.583,1.902,2.371,3.547,3.94c4.79,4.597,5.558,5.473,6.91,8.1l1.317,2.444l6.618.219.438,1.423c.622,2.116,2.669,3.867,6.874,5.874c2.742,1.35,3.986,1.751,4.68,1.569.549-.146.914-.073.914.182s.293.292.951.037c1.682-.657,3.766-.402,9.214,1.131c10.42,2.918,15.43,2.116,18.025-2.81c1.061-1.97,2.048-2.335,3.693-1.313c2.084,1.277,2.889,1.167,4.461-.547c1.792-2.007,4.095-3.065,9.872-4.634c2.596-.73,4.753-1.35,4.826-1.386.037-.073-.146-1.168-.475-2.481-.621-2.737-.475-5.035.439-6.422.914-1.386,1.06-.839.402,1.423-1.133,3.831-.548,6.13,1.609,6.64.841.183.987.037,1.572-1.605.329-.985,1.133-2.298,1.718-2.955c1.134-1.204,1.171-1.204,4.132-.657.512.073.878-.438,1.609-2.262c1.536-3.904,3.949-7.078,10.055-13.353c5.96-6.129,8.519-9.559,10.384-13.791.548-1.314,1.133-2.408,1.279-2.408c0,0,1.689-1.212,4.315-.712s4.058-1.197,5.813-3.849c1.755-2.651,2.313-1.151,3.803-3.651s2.486-1.566,2.486-1.566c0-4.086-.585-6.312-3.473-12.879-3.035-7.041-3.986-10.799-3.73-14.922.073-1.715,1.024-7.443,2.048-12.77c2.12-11.091,3.473-19.3,4.095-24.809.621-5.728.548-16.601-.183-20.979-.658-3.831-2.377-9.449-3.51-11.383l-.658-1.131l1.353-.912c2.669-1.751,4.753-4.342,5.886-7.187.256-.694.549-1.35.585-1.423c0,0-1.389-6.422-3.656-9.377s-8.446-6.093-8.446-6.093c-2.815,0-5.85.183-6.728.402l-1.608.401-1.536-1.678-1.499-1.679l1.389-3.283c2.34-5.436,3.254-9.231,3.474-14.886l.219-4.962l1.975-1.167c6.837-4.086,11.298-9.742,11.992-15.251c0,0,1.035-5.466-3.217-8.865-4.253-3.4-3.913-4.014-3.913-4.014h-2.303c-2.889.037-4.168.511-8.446,3.102-1.901,1.131-3.62,1.97-3.803,1.86-.183-.109-1.462-2.189-2.852-4.597-2.632-4.706-5.082-7.552-7.532-8.793-1.426-.729-1.572-.729-3.766-.182-1.243.292-2.522.657-2.852.803-.548.182-.548.073-.219-.949.549-1.569.219-4.597-.768-6.895-.475-1.022-.768-1.971-.658-2.044.073-.109,1.316.329,2.706.912c5.301,2.226,9.579,2.08,12.066-.364c1.243-1.168,1.352-1.825,1.828-9.1214.256-3.7214-.22-7.5158-1.316-10.7264l-.622-1.8242-3.62-1.4229c-2.559-1.0216-4.387-1.4959-6.252-1.6054l-2.596-.2189-.768,1.5324c-1.974,3.8309-1.024,8.7927,2.706,13.9005c1.462,2.0063,1.206,2.3713-2.084,2.9183-3.693.584-3.73.584-4.717-1.532-1.865-3.9767-7.349-8.1359-13.638-10.2885-5.009-1.7147-8.373-2.2255-15.027-2.2255-8.849,0-13.968,1.3134-19.415,4.9254-2.121,1.4229-2.706,1.6418-3.437,1.3864-.512-.1824-2.523-.2919-4.534-.2189-2.413.073-3.656-.0365-3.766-.2919-.073-.2189.95-2.0431,2.303-4.0133c2.962-4.4511,3.437-5.5091,3.693-8.5738l.22-2.408-1.975-.985c-2.742-1.3135-4.899-1.5324-7.276-.7662-5.813,1.9337-9.433,10.7629-7.495,18.2057c1.499,5.7276,6.142,8.6836,11.005,7.0046.951-.328,2.121-.583,2.633-.583.841,0,.841.036-.293.985-1.535,1.277-2.596,2.991-3.802,6.202-.549,1.459-1.134,2.736-1.28,2.809-.146.11-1.06-.036-2.048-.328-3.254-.985-5.155.036-10.274,5.473-2.194,2.335-4.241,4.414-4.57,4.597-.476.255-1.316-.329-3.766-2.591-5.667-5.253-7.532-6.202-10.201-5.29-.797.277-1.463.455-1.53.442.129.092,2.411,1.817-.92,6.162-3.426,4.469-1.482,2.974-4.278,3.502-2.796.529-3.799,3.503-3.799,3.503c2.034,4.144,3.707,6.004,8.077,10.288ZM171.44,93.9681c1.719-1.8607,2.925-5.2537,3.913-11.1642.109-.6202.146-1.1675.109-1.1675-.621,0-2.815,1.6418-3.473,2.5539-1.609,2.3715-2.377,7.0415-1.572,9.7778l.219.8756.804-.8756Zm80,4.3781c.293-2.335-.256-4.6335-1.389-5.9469-.987-1.1675-2.852-1.6053-4.9-1.204-2.011.4378-2.011.7662-.109,5.2173.804,1.8971,1.462,3.9404,1.462,4.5244c0,.912.293,1.313,1.39,2.006.731.475,1.499.766,1.645.693.585-.364,1.645-3.32,1.901-5.2898Zm-24.131-.5107c-1.975-1.7148-5.887-3.612-9.872-4.743-2.779-.8027-4.242-.9851-9.324-1.0945-5.119-.146-6.435-.0365-8.629.5472-2.084.5838-6.362,2.6634-6.362,3.1377c0,.0365,2.413,0,5.412-.073c6.069-.2189,8.226,0,20.146,2.0796c4.497.8027,8.629,1.4594,9.141,1.4594.916-.0352.915-.0364-.365-1.182l-.147-.1314Zm1.901,7.4065c-.439-1.168-6.947-3.503-12.322-4.415-4.314-.766-12.76-1.0214-16.636-.547-10.201,1.24-17.185,4.889-20.073,10.434-.329.657-.585,1.35-.585,1.569c0,.621,3.62,2.153,6.654,2.81c2.158.474,4.388.547,11.81.437c19.964-.328,24.424-.036,28.556,1.679c1.901.802,2.084.729,1.828-.73-.146-.693.037-3.393.366-6.02.329-2.59.512-4.962.402-5.217Zm7.02,13.39c-.292-.329-.585-2.117-.731-4.415-.293-4.634-.805-5.509-2.304-4.013-1.097,1.094-1.17,1.97-.512,6.166l.403,2.845h1.828c1.609,0,1.755-.073,1.316-.583Zm-38.318,1.386c-20.073.292-21.792.146-26.399-2.08-1.06-.51-2.12-.912-2.303-.912-.219,0-1.243.693-2.304,1.533-8.007,6.603-12.321,17.257-13.82,34.113l-.012.131c-.612,6.854-.768,8.592-.045,9.807.246.413.593.766,1.057,1.238l.06.061c2.888,2.882,5.631,3.867,16.856,6.166c3.436.729,8.446,1.97,11.151,2.772c13.785,4.123,16.015,4.67,19.927,5.072c4.753.51,11.225.146,23.4-1.204c4.425-.511,10.348-1.131,13.163-1.35c4.717-.365,11.847-.256,14.735.255c1.134.219,1.207.146,2.048-1.715c4.753-10.945,3.583-26.962-3.035-41.008-1.645-3.466-4.095-7.479-5.996-9.814l-.878-1.095-2.523.803c-6.654,2.079-12.614,1.933-25.557-.62-10.677-2.117-12.03-2.262-19.525-2.153Zm-47.093,4.013c-.768-1.24-1.573-1.97-3.035-2.7-1.097-.583-2.523-1.131-3.144-1.24-.951-.182-1.244-.037-2.158,1.131-1.462,1.97-2.157,4.488-1.682,6.312.768,2.773,6.143,8.464,6.691,7.078.147-.329.768-1.97,1.39-3.649.658-1.642,1.572-3.502,2.084-4.122l.914-1.095-1.06-1.715Zm122.157,16.528c.951-1.825,1.024-5.911.146-7.954-.621-1.313-.658-1.35-2.559-1.313-2.852.073-3.437.255-4.717,1.459-1.06.985-1.133,1.204-.914,2.627.293,1.824,2.23,4.743,4.095,6.239c1.719,1.35,2.852,1.021,3.949-1.058Zm-135.32,32.653l-1.974-.875c-2.048-.913-5.741-1.533-6.362-1.058-.183.182-.403.948-.476,1.751-.073.802-.548,2.152-1.023,2.992-.476.839-.878,1.787-.878,2.152c0,.511,1.097,2.116,2.925,4.269.146.146.768-.766,1.426-2.043c1.426-2.846,2.962-4.707,4.899-6.13l1.463-1.058Zm38.684,4.999c-3.547-1.131-8.081-2.408-10.092-2.81-4.095-.912-12.139-1.277-14.808-.729-2.852.62-6.179,2.517-8.958,5.144-5.813,5.546-9.506,13.28-11.883,25.101-1.901,9.486-2.34,15.105-2.34,30.136c0,17.367.841,29.261,3.986,55.968l.072.617c.516,4.374,1.302,11.04,1.756,15.217l.877,7.99l1.463,1.897c.638.879,1.982,2.514,3.174,3.962l.004.005.031.038.002.002.325.395c.072.088.144.176.214.261.042.052.084.103.126.153c4.021,4.67,6.179,8.172,7.458,11.967l.622,1.788l3.437,1.204c5.155,1.824,12.212,3.538,23.217,5.618c5.448,1.022,10.823,2.116,11.993,2.372c1.609.364,2.157.401,2.267.073.731-2.226,2.413-13.828,3.437-23.788c1.974-18.68,2.669-31.888,3.693-67.861.256-9.267.585-14.521,1.316-20.796.805-6.859.987-10.107,1.024-17.659.036-5.983-.11-9.34-.329-9.413-1.024-.328-5.265-3.356-7.167-5.108-4.387-4.086-7.276-9.923-8.08-16.491l-.402-3.21-6.435-2.043Zm96.197,43.525c-2.925-23.787-11.81-39.403-23.473-41.227-2.194-.328-12.688-.401-15.722-.109-10.311.985-11.957,2.116-15.357,10.799-2.596,6.494-3.071,7.37-5.155,9.449-1.646,1.642-1.902,1.752-3.072,1.533-.987-.183-1.608,0-2.925.729-.914.548-1.645,1.095-1.645,1.277c0,.767-2.303,41.702-3.108,55.129-1.572,25.976-5.046,76.507-5.813,83.987l-.183,1.751h2.779c2.376,0,3.29-.219,6.362-1.423c5.228-2.116,7.641-2.444,11.59-1.642.695.146.804.365.731,1.387-.073.985.147,1.423,1.097,2.225.658.547,1.17,1.277,1.17,1.678c0,.365.146.694.293.694.512,0,2.998-1.898,5.923-4.524c3.473-3.065,5.74-4.233,8.227-4.233c1.864,0,1.864-.036,1.755-1.021-.183-1.241.292-1.751,4.095-4.159c3.949-2.554,9.323-7.99,12.321-12.515c10.019-15.104,16.015-36.776,19.708-71.509.987-8.975,1.17-22.146.402-28.276Zm-66.508-38.053c-4.863-.109-10.311-.474-12.358-.802-2.011-.292-3.949-.657-4.278-.767-.549-.146-.658.037-.658,1.204c0,1.788.914,5.655,1.682,7.115.329.62,1.316,1.897,2.193,2.846c2.231,2.371,5.119,3.612,9.653,4.122l3.583.402l2.121-2.299c3.729-4.013,5.923-7.516,6.545-10.471l.219-1.131-8.702-.219Zm72.614,6.057c-.475-1.496-2.815-3.612-4.607-4.123-.768-.219-2.486-.474-3.802-.62-2.633-.219-2.889-.073-2.889,2.116c0,1.313.146,1.313,1.719-.037c1.206-1.094,2.084-1.277,3.693-.875.511.146.804.51.804,1.021c0,1.496,1.718,4.451,3.473,5.984.951.839,1.865,1.532,2.048,1.532.366,0,.073-3.466-.439-4.998ZM125.48,287.81c0-2.153-.109-2.627-.694-2.955-1.243-.657-4.827-.438-6.179.364-1.28.767-1.755,1.715-2.121,4.05-.183,1.168-.11,1.569.439,1.97c1.462,1.095,5.521,3.43,6.435,3.649.877.219.95.109,1.535-2.153.33-1.313.585-3.539.585-4.925Zm146.655,21.891c1.755-1.825,2.706-3.904,3.108-6.969.146-1.058.036-2.08-.293-2.919l-.512-1.24-.767,1.605c-.439.912-1.061,2.7-1.39,3.977-.731,2.919-1.572,5.035-2.45,6.312-1.243,1.787.33,1.277,2.304-.766Zm-68.483,41.3l-2.047-.62c-1.499-.475-2.486-1.131-3.803-2.481l-1.755-1.788v1.277c0,1.204-.073,1.313-1.097,1.313-.987,0-1.097.11-1.097,1.095c0,.62.33,2.298.732,3.721.402,1.46.731,3.393.731,4.305c0,1.569.073,1.679,1.28,2.044l1.243.401-.878-1.058c-1.023-1.204-1.097-1.605-.548-2.992.219-.657.621-.948,1.243-.948.548,0,1.353-.548,2.267-1.533.731-.839,1.901-1.788,2.559-2.116l1.17-.62Zm-20.073-2.262c-1.791-.219-4.278-.73-5.521-1.131-1.28-.402-2.413-.73-2.559-.73s.073.693.439,1.532c.402.876.731,1.934.731,2.372c0,.62.219.839.841.839.439,0,2.742.401,5.119.876c2.376.437,4.351.729,4.424.62.073-.11.073-1.058-.037-2.08l-.183-1.897-3.254-.401Zm30.677,1.824c.841-.438,1.535-.876,1.535-.949c0-.109-.109-.146-.256-.146-.302.07-1.712.272-3.686.551-.28.04-.57.081-.871.123-.003,0-.006.001-.009.001l-.009.002h-.002c-.91.128-1.909.269-2.955.418l-.25.033c-2.015.265-2.877.378-3.283.869-.304.368-.352.947-.435,1.961l-.017.202c-.11,1.021-.073,1.058,1.353.948c1.645-.109,2.925.876,3.217,2.518.072.426.108.645.135.643.029-.001.047-.247.085-.753.109-2.444,2.011-4.706,5.448-6.421Zm-33.748,7.625c.475.365.548.329.548-.328c0-.438-.219-.766-.548-.766-.293,0-.549.146-.549.328c0,.183.256.511.549.766Zm20.475,1.095c-.292.474.914.474,1.646,0c.438-.292.329-.365-.439-.365-.549,0-1.097.146-1.207.365Z" clip-rule="evenodd" fill-rule="evenodd"/><g id="ebwytp4YIdu7_to" transform="translate(329.31924,101.931792)"><path d="M296.702,83.3963c-.073,0-.11-1.204-.11-2.6633c0-1.4229-.329-4.0133-.768-5.7281-1.023-4.1592-1.06-7.078-.182-9.0481l.731-1.5688-1.06-.8392c-.951-.7662-1.097-1.0945-1.207-3.466-.073-1.4594.037-4.1957.293-6.0929.877-6.932.475-10.7264-1.317-13.1344-.439-.6202-1.024-2.1525-1.243-3.466-1.28-7.0415-6.435-15.1045-13.089-20.5042-2.414-1.9702-8.447-5.874-8.702-5.6186-.074.073.365,1.1675.95,2.408c1.17,2.4809,2.194,3.8673,5.594,7.6982c2.669,2.9917,3.913,5.4361,3.913,7.6252l-.001.014c-.036,1.5553-.038,1.6257-.584.9346-.293-.4013-1.902-2.9552-3.511-5.6551-3.436-5.728-5.411-8.3184-7.97-10.5075l-1.828-1.5688v1.9702c0,3.9768,1.096,6.3847,6.252,13.7546c1.755,2.5174,3.693,5.4726,4.314,6.6036c1.426,2.5539,2.45,6.4943,2.743,10.7264.365,4.5241.95,7.7347,1.718,9.5589l.658,1.5689h-4.351v1.4594c0,1.6782.731,2.6268,2.706,3.4295.694.2919,1.353.8756,1.499,1.2769.11.4378.366.7662.548.7662.183,0-.073.4013-.548.9121-1.426,1.4229-1.134,4.0133.585,4.9254.585.3284,1.133.2189,2.779-.5473c1.535-.6932,2.157-.8391,2.449-.5107.293.2918.22.5107-.292.8391-2.011,1.2405-2.413,1.7512-2.413,3.1012c0,2.0796,1.279,3.1376,3.839,3.1011c1.097-.0364,2.011.1095,2.011.2919c0,.8757-1.828,2.7364-4.9,4.9984-1.828,1.3864-3.619,2.8093-3.985,3.2106-.622.7297-.585.7662,1.792,2.1526c1.352.7662,3.071,2.0431,3.802,2.8093L289.207,90c0,0,3.483-2.2936,4.714-3.2867c1.823-1.4718,2.781-3.317,2.781-3.317Zm-6.143,2.6269c1.865.9121,2.011.8391,2.011-.9851s-.438-2.0431-2.193-1.1675c-1.353.6567-1.28,1.4594.182,2.1526ZM288.11,62.3448c.109.9851.109.9851-1.975.9851h-2.12l1.462-1.0945c1.682-1.277,2.486-1.277,2.633.1094Zm1.535-22.8392c-.365-.1094-.987-.7662-1.353-1.4958-.329-.7297-.877-1.3135-1.17-1.277-.329,0-1.206.6932-1.974,1.5323l-1.389,1.5324.402,2.9552c.512,3.8674,1.206,6.6037,2.632,10.1427c1.207,2.9917,1.682,3.1011,1.719.2919.036-1.5689.951-3.7215,1.865-4.3417.767-.5473.621-1.3864-.329-1.8972-.33-.1824-1.28-.2189-2.158-.0365-.841.146-1.535.1825-1.535.1095c0-.1095.438-.6932.987-1.3499.731-.8757,3.035-5.2903,3.035-5.874c0-.0365-.329-.1824-.732-.2919Z" transform="translate(-281.656494,-50.627376)" clip-rule="evenodd" fill-rule="evenodd"/></g><g id="ebwytp4YIdu8_tr" transform="translate(277.228771,132.993486) rotate(59.652715)"><path d="M282.331,135.702c5.704-4.524,10.859-9.449,15.685-14.922c2.56-2.882,4.681-5.326,4.681-5.436c0-.109-.768-.146-1.719-.073-1.06.073-2.011-.073-2.413-.365-.622-.438-.549-.62,1.06-2.262.914-.985,2.231-2.955,2.925-4.378c1.28-2.663,2.779-7.808,2.45-8.3548-.11-.1824-1.28-.2554-2.633-.2189l-2.413.1459.11-1.0945c.073-.6202,1.133-3.2106,2.34-5.7645c2.669-5.6551,2.889-7.4428,1.28-10.2156-1.243-2.1161-2.121-2.1891-5.229-.6203-1.17.5838-2.194,1.0946-2.23,1.0946c0,0-.958,1.8451-2.781,3.3169-1.231.9932-4.715,3.2867-4.715,3.2867l-2.303,3.0282c-4.241,5.6186-5.996,9.4863-10.896,23.7513-1.535,4.415-3.035,8.647-3.327,9.377l-.585,1.386l7.13,12.879c.252-1.872.327-1.932,3.456-4.458l.127-.103Zm12.358-40.4243c.951-1.3134,1.975-2.9188,2.304-3.5755.365-.6567.585-1.6418.512-2.189-.11-.9486-.183-.9121-2.487,1.3864-3.4,3.393-5.886,6.859-8.373,11.6754-3.619,7.005-6.142,14.447-7.495,22.255-.914,5.29-.987,6.567-.439,6.567.878,0,3.401-2.006,7.898-6.275c4.278-4.086,4.46-4.342,3.912-4.962-1.316-1.459-.512-3.502,3.437-8.355c2.194-2.7,3.985-5.436,3.985-6.056c0-.11-.438-.256-1.023-.365-1.536-.328-2.779-1.46-3.986-3.795-.09-.17-.175-.325-.253-.469-.35-.643-.572-1.049-.596-1.4676-.041-.7207.505-1.4751,1.993-3.5299l.003-.003c.187-.2591.39-.5388.608-.8418Z" transform="translate(-277.228771,-132.993486)" clip-rule="evenodd" fill-rule="evenodd"/></g><g id="ebwytp4YIdu9_tr" transform="translate(276.553509,189.687684) rotate(0)"><path d="M283.325,197.454c.22-.255,7.386,3.795,11.042,6.239c13.309,8.866,24.351,20.906,36.454,39.659c2.559,3.976,2.925,4.414,3.144,3.648.805-2.846,0-6.056-3.108-12.697-2.23-4.743-3.875-9.23-3.875-10.617c0-.912,3.729-4.305,5.704-5.144c1.144-.522,1.901-.705,2.308-.444c0,0,.229-1.161,1.229-1.708c1-.548,1.874-.402,1.874-.402-.146-.292.475-.328,2.157-.146c2.742.292,3.73-.073,4.095-1.532.366-1.496-1.06-2.444-5.996-3.977-5.082-1.605-6.252-2.517-6.252-4.998v-1.642l-1.536-.255c-2.998-.438-5.229-1.022-7.24-1.898-3.437-1.495-4.753-3.247-4.753-6.238c0-2.043-.256-2.262-2.669-2.262-2.815,0-10.238-1.825-16.709-4.05-19.269-6.677-20.512-7.005-27.971-7.005c0,0,6.179,3.138,8.446,6.093s3.656,9.376,3.656,9.376Zm43.657,12.551c-10.055-8.319-23.839-14.813-40.256-18.972-4.388-1.131-4.461-1.131-4.132-.109.293,1.094.841,1.751,1.39,1.751c1.06,0,9.542,4.597,13.126,7.078c3.802,2.663,5.63,4.086,15.064,11.675c5.411,4.378,10.676,7.99,11.151,7.698.22-.11.366-.438.366-.657c0-.255.402-1.058.914-1.824.914-1.313,3.912-3.174,5.119-3.174c1.097,0,.512-.766-2.742-3.466Z" transform="translate(-276.553501,-189.687676)" clip-rule="evenodd" fill-rule="evenodd"/></g><g id="ebwytp4YIdu10_to" style="offset-path:path('M348.596199,260.600367C356.437048,242.580198,362.171531,211.831373,351.238354,198.718943C362.574199,211.894945,356.118173,242.38914,348.596199,260.600367');offset-rotate:0deg"><path d="M333.814,221.169c-.512,1.678-.878,3.393-.805,3.867.11.803.293.876,2.084.876c1.682-.037,2.085-.183,2.816-1.022.475-.547,1.06-1.642,1.279-2.444.366-1.241.549-1.423,1.207-1.241c1.682.511,1.682.657.366,2.59-1.719,2.445-2.048,4.67-.914,6.276c1.279,1.751,2.925,1.423,4.277-.876.549-.948,1.097-.438,1.39,1.204.256,1.751,1.536,3.722,2.888,4.451.988.511,1.061.511,1.938-.474l.878-1.022v.985c0,.548.475,2.08,1.06,3.393.585,1.314,1.17,2.7,1.28,3.029.146.474.585.656,1.609.656c1.608,0,2.449-.693,2.851-2.371.366-1.642.476-1.678,1.719-1.058c1.865.985,3.51,2.554,7.532,7.37c3.985,4.779,6.801,7.005,9.689,7.771c3.401.876,3.876,1.131,5.009,2.736c1.426,2.08,2.231,4.451,3.437,10.216.549,2.59,1.317,5.691,1.719,6.895.694,2.153,2.961,6.02,3.51,6.02.694,0,2.376-4.305,2.559-6.567.22-3.247-.548-5.983-3.4-12.076-3.218-6.75-4.022-9.085-3.145-9.085.183,0,1.17.766,2.194,1.678c2.304,2.044,3.766,4.999,5.887,11.712.841,2.663,1.645,4.852,1.828,4.852.695,0,3.51-2.481,4.132-3.648c1.023-1.97.621-4.232-1.719-9.668-1.097-2.627-2.121-5.437-2.267-6.312-.219-1.423-.402-1.642-2.12-2.518-3.181-1.605-6.436-3.867-11.006-7.625-11.554-9.486-16.965-12.295-25.338-13.134-1.353-.146-2.56-.402-2.669-.62-.147-.183-.11-.913.109-1.569.22-.912.183-1.496-.219-2.226-.512-.985-.585-.985-3.254-.875-3.327.109-4.388-.292-7.642-3.138-2.267-1.97-5.265-3.758-6.289-3.758-.292,0-.658-.182-.804-.401c0,0-.874-.146-1.874.401s-1.228,1.709-1.228,1.709c.645.415.41,1.952-.554,5.041Zm42.779,20.65c-1.426-1.715-4.827-3.904-9.178-5.911-2.084-.985-3.875-1.787-4.022-1.787-.329,0,4.534,5.472,6.435,7.223c2.633,2.481,4.534,3.685,6.838,4.269c1.17.292,2.157.474,2.23.401.256-.255-1.243-2.955-2.303-4.195Zm-22.158-12.113c.329.219.402.693.256,1.605l-.256,1.277-1.243-.729c-1.17-.694-1.206-.73-.658-1.606.622-.912,1.097-1.058,1.901-.547Zm-5.923-1.423c.475,0,.878-.803.878-1.788c0-.401-.439-.766-1.28-1.021-.695-.219-1.28-.256-1.28-.073c0,.657,1.316,2.882,1.682,2.882Z" transform="rotate(34.56724) translate(-367.108414,-246.498161)" clip-rule="evenodd" fill-rule="evenodd"/></g><g id="ebwytp4YIdu11_tr" transform="translate(271.223008,312.729014) rotate(0)"><path d="M266.985,317.307c.887.962,1.827,1.982,2.319,2.965c2.633,5.181,4.936,13.937,6.033,22.693.878,7.005,1.28,13.244,1.682,27.546.22,7.224.549,15.98.731,19.446.22,3.466.366,6.859.366,7.552c0,.694.146,1.277.329,1.277s1.097-1.532,1.975-3.393c1.206-2.408,1.937-4.597,2.632-7.734c2.011-9.45,2.45-11.055,3.437-13.171c1.207-2.554,2.925-4.378,4.973-5.29c1.352-.621,1.462-.621,1.828-.037c0,0,3.711-.423,5.42-1.923c1.71-1.5,4.123.974,4.123.974-.256-.693-.147-.802.841-.802c2.157,0,4.058-1.277,4.826-3.247.292-.73.183-1.058-.695-2.007-1.645-1.751-3.108-4.05-5.338-8.501l-2.047-4.123l1.243-.51c.694-.292,1.462-.876,1.682-1.314.365-.693.219-1.021-1.17-2.809-.483-.602-1.143-1.458-1.797-2.307-.535-.694-1.066-1.383-1.494-1.925-.914-1.204-2.157-3.101-2.706-4.232-.914-1.788-1.024-2.481-1.06-5.327c0-1.231.034-1.998-.123-2.725-.33-1.535-1.51-2.887-5.654-8.038-6.435-7.99-7.934-11.055-7.934-16.345c0,0-.997-.934-2.487,1.566-.742,1.246-1.253,1.498-1.797,1.766-.546.27-1.125.556-2.005,1.885-1.755,2.652-3.187,4.349-5.814,3.849-.115-.022-.227-.044-.336-.065-2.37-.454-3.233-.619-3.978.777-.461.864.711,2.136,1.995,3.529Zm26.78,27.118c-6.033-16.455-9.104-22.694-14.515-29.516-1.28-1.642-2.487-2.919-2.743-2.919-.219.037-.804.255-1.243.474-.768.365-.841.584-.658,2.044.11.912.804,2.772,1.536,4.195c1.06,1.97,1.389,3.101,1.535,4.999l.183,2.48h-.987c-.096,0-.185-.007-.266-.013-.165-.013-.297-.024-.384.034-.342.228.026,1.524,1.851,7.945l.021.071c.248.872.522,1.839.825,2.909c3.913,13.754,4.936,18.497,5.997,27.947.146,1.386.256,1.496,1.17,1.313.548-.073,2.998-.985,5.484-1.97c2.487-.985,5.448-1.97,6.582-2.225c1.133-.219,2.12-.438,2.193-.475.074-.036-.658-1.933-1.608-4.195-.914-2.299-3.181-8.173-4.973-13.098Z" transform="translate(-271.223008,-312.729012)" clip-rule="evenodd" fill-rule="evenodd"/></g><g id="ebwytp4YIdu12_to" style="offset-path:path('M309.408705,402.735043C325.823768,399.031016,346.874699,377.829448,349.958488,344.782724C352.903395,357.789767,327.190737,403.615612,309.408709,402.735043');offset-rotate:0deg"><path d="M292.756,368.923c.658,1.095.439,7.37-.256,8.793-.622,1.167-.622,1.24.183,1.897c1.243,1.022,2.486.876,3.583-.474l.987-1.168-1.024,4.561c-.548,2.481-1.352,5.472-1.755,6.603l-.767,2.08l1.17-.219c1.462-.255,2.413-.73,3.51-1.715.841-.729.841-.729.512-.036-.622,1.24-2.816,10.726-2.56,10.982.146.146,1.536-.146,3.071-.693c1.573-.511,2.852-.913,2.925-.84.037.037-.402,1.788-1.023,3.904-.841,2.81-1.061,4.305-.951,5.801.146,1.788.293,2.116,1.755,3.393l1.609,1.423.475-1.642c.329-1.24.805-1.86,1.901-2.59.805-.511,1.536-.949,1.646-.949.109,0,.183.949.183,2.08c0,1.167.402,5.874.914,10.507c2.011,18.498,2.084,19.447,1.901,26.817-.219,7.515-.768,11.2-2.596,17.184-.512,1.714-.951,3.21-.951,3.356c0,.11.841-.292,1.865-.948c3.547-2.189,4.497-4.196,6.362-13.39c1.243-6.239,2.267-8.939,3.912-10.471.768-.73,2.816-1.715,3.035-1.496.622.657,1.024,4.67,1.28,12.66.402,11.602.987,15.214,2.449,14.922.695-.146,1.975-4.196,2.889-9.267.914-5.035.914-16.564.037-22.401-1.865-11.785-6.143-23.496-11.591-31.596-1.463-2.152-2.194-3.612-2.194-4.341c0-1.679-1.353-6.203-2.705-9.158-1.39-2.919-3.511-6.202-5.448-8.282l-1.317-1.386.914-1.314c1.426-2.116.988-4.451-1.608-8.209-1.17-1.751-2.413-4.05-2.779-5.327c0,0-2.413-2.474-4.123-.974-1.709,1.5-5.42,1.923-5.42,1.923Zm27.751,57.208c-.694-2.81-3.546-8.611-6.142-12.551-2.158-3.32-2.413-3.648-2.413-3.138c0,.183.329,3.029.731,6.349c1.206,10.069,2.047,13.608,4.168,17.84l1.024,1.934l1.243-1.204c2.011-1.97,2.486-4.962,1.389-9.23Zm-11.188-28.093l1.353,1.35-.914.583c-.512.329-1.792,1.387-2.889,2.408l-1.938,1.824.183-1.641c.096-.596.207-1.364.303-2.028l.003-.017c.05-.345.096-.662.133-.911.146-.839.11-1.422-.146-1.568-.951-.621-.183-1.095,1.938-1.277.365,0,1.243.547,1.974,1.277Zm-3.254-7.626c-.219-.437-1.316-1.678-2.45-2.736-1.133-1.021-2.084-1.897-2.084-1.897-.026,0-.178.108-.394.262l-.001.001c-.091.064-.192.136-.3.211-.658.474-.621.547.293,1.46.804.802.951,1.277.951,3.137v2.189l1.316-.875c.731-.511,1.755-.912,2.23-.912.768,0,.841-.073.439-.84Zm-4.9-11.383c.768,1.095,1.317,2.043,1.244,2.116-.054.054-.458.301-.971.616l-.003.001-.219.135c-.124.076-.251.154-.38.233-1.352.803-1.426.803-1.17.146.585-1.532.622-2.626.073-3.903-.292-.767-.804-1.35-1.133-1.35s-.475-.183-.366-.365c.403-.62,1.463.219,2.925,2.371Zm-4.387-5.728c.365.365,1.974-1.496,2.23-2.554.146-.766.037-1.277-.329-1.641-.475-.475-.621-.292-1.316,1.751-.402,1.24-.695,2.371-.585,2.444Z" transform="translate(-309.772832,-402.638445)" clip-rule="evenodd" fill-rule="evenodd"/></g><g id="ebwytp4YIdu13_to" style="offset-path:path('M43.763705,366.538536C43.068214,385.379126,60.44168,398.254873,74.421374,398.784741C61.554223,397.502571,43.522927,387.8238,43.763705,366.538536');offset-rotate:0deg"><path d="M81.8902,349.5c-.4753,5.582-.7678,3.357-3.1444,8.318-1.6819,3.539-3.1078,7.005-3.2175,7.918-.2194,1.568-.1828,1.678.8775,2.225c1.3894.693,2.9982,3.357,2.9982,4.816c0,.584-.256,1.386-.5485,1.751-.6581.839-.9506.621-3.1078-2.152-1.8648-2.408-4.3876-4.159-4.3876-3.065c0,.219-.8775,2.262-1.9744,4.561-2.4132,4.998-5.192,9.34-11.883,18.388-6.362,8.574-9.0677,12.587-11.3346,16.856-4.6435,8.683-6.947,17.95-6.9835,27.764v3.977l1.4625-1.167c2.3766-1.861,3.2175-4.087,4.5704-11.676.6216-3.757,1.6088-5.873,3.2175-7.077l.9872-.73l1.0238.985.9872.985.0731,6.129c.0732,7.078.1463,7.662,1.3529,9.413l.914,1.35.4022-1.605c1.4626-5.838,4.4607-13.317,9.8721-24.773c3.7294-7.844,6.9104-15.469,7.861-18.716.3291-1.168.7313-2.08.841-2.007l.0015.001c.1499.075.8787.438,1.6438.838c1.2797.657,1.4991.657,2.3766.146.9872-.547.9872-.62.9872-4.232c0-4.378-.5119-5.327-2.7057-5.144-1.17.109-1.3528.255-1.6453,1.459-.1828.766-.4387,1.386-.585,1.386-.1097,0-.8409-.547-1.5722-1.24-1.4991-1.387-1.6819-2.299-.8044-4.378.585-1.35,1.755-2.773,2.34-2.773.1829,0,.4388.547.5485,1.24.3291,1.715,1.2797,2.408,3.9122,2.773c2.2669.329,3.2542.949,3.2542,2.08c0,.255.4021.474.914.474h.9141l-.0731-5.29c-.1097-4.597-.0366-5.327.5119-5.911.6215-.583.6947-.583,1.8647.548c1.3528,1.313,3.2907,1.605,3.6928.583.3657-.985.2194-3.502-.329-5.801-.6582-2.809-.6947-5.071-.0366-5.618.4022-.329.7678-.073,1.7916,1.35c1.426,2.006,3.4004,3.064,3.8026,2.043.1097-.292.1097-2.262-.0366-4.342-.1425-2.168-.1114-3.747.0593-3.962-.1655.164-1.8287,1.679-5.9825.661-4.3876-1.075-3.6929-6.122-3.4369-7.936.2559-1.814-2.267-1.423-2.267-1.423Zm2.7423,13.645c.0731-2.262-.0366-2.773-.6216-3.21-.9506-.657-1.0603-.657-1.8281.182-1.426,1.569-1.0604,5.327.6946,6.968l.8776.84.4022-1.058c.2559-.584.4387-2.262.4753-3.722ZM66.4606,391.822c1.426-1.897,1.8647-2.7,1.5357-2.919-.9141-.583-1.9744-.292-2.5594.693-.3291.584-1.9379,2.737-3.6198,4.853-6.5448,8.355-8.7386,12.66-8.7386,17.075c0,1.751.256,2.955.841,4.195l.8044,1.788l1.4259-1.423c1.9013-1.861,3.8757-6.166,5.4845-12.149c2.2669-8.246,2.7057-9.34,4.8263-12.113Z" transform="rotate(-16.10813) translate(-66.408344,-395.160751)" clip-rule="evenodd" fill-rule="evenodd"/></g><g id="ebwytp4YIdu14_tr" transform="translate(110,296.68963) rotate(44.844029)"><path d="M104.189,298.604c2.962-3.065,3.912-4.305,4.095-5.29.06-.321.091-.648.122-.974.1-1.045.198-2.078,1.226-2.84c0,0,2.071-.467,3.071,2.208.372.997,1.318,1.107,2.303,1.221c1.056.123,2.158.251,2.651,1.479.954,2.375,3.936,5.838,3.936,5.838l-1.279,2.809c-9.47,20.541-14.918,43.562-18.757,78.916l-.658,6.019-1.1705-2.48c-1.4625-3.138-2.0475-5.619-2.9616-13.025-.4388-3.284-.9506-6.823-1.17-7.844-.4753-2.372-2.1207-6.057-2.5594-5.802c0,0-.0046.005-.0139.015-.1655.164-1.8287,1.679-5.9825.661-4.3875-1.075-3.6928-6.122-3.4369-7.936s-2.2669-1.423-2.2669-1.423c.2559-3.174-.8044-4.269-5.3016-5.4L74.5,344.392l.5484-1.533c1.2432-3.539,3.5832-6.275,9.2871-10.799c1.4991-1.204,2.9616-2.59,3.2541-3.028.4387-.766.4022-.912-.5485-1.642-.9506-.803-.9872-.876-.585-2.262.585-1.934,1.426-2.919,4.9726-5.874c1.7993-1.507,2.5055-2.099,2.881-2.855.2426-.488.3472-1.045.5194-1.961.9506-5.473,3.4735-9.778,9.3599-15.834ZM88.5037,351.652c.7678,1.459,1.2065,5.655.585,5.436-.2925-.073-.6947-.693-.9141-1.35-.2194-.693-.841-1.605-1.3894-2.079l-.9872-.839.8409-1.241c.8776-1.386,1.1335-1.386,1.8648.073Zm26.7273-53.559c.622-2.627.622-2.736,0-3.211-.402-.255-.804-.474-.987-.474-.146,0-1.06.949-2.047,2.116-4.022,4.853-7.021,9.668-14.6988,23.606-5.1189,9.34-8.9214,14.885-13.4187,19.519l-1.5722,1.678l1.5722.766c.8775.438,3.0348,2.116,4.7898,3.722c4.3876,4.049,5.4113,4.56,9.5064,4.597.3703,0,.6996.006.9927.011h.0046c1.023.019,1.605.029,1.951-.251.456-.369.504-1.243.615-3.267.026-.469.055-1,.093-1.601.439-7.042,2.194-13.791,8.227-31.742c2.376-7.041,4.607-13.973,4.972-15.469Z" transform="translate(-111.627213,-299.386438)" clip-rule="evenodd" fill-rule="evenodd"/></g><g id="ebwytp4YIdu15_to" style="offset-path:path('M43.766635,151.472384C35.73205,169.208045,40.761281,206.685082,49.424145,226.826543C42.553042,209.177528,35.373012,175.575836,41.323646,153.3636');offset-rotate:0deg"><g id="ebwytp4YIdu15_tr" transform="rotate(12.755526)"><path d="M70.8007,192.081l-2.1207.073c-1.5356.036-2.925.401-5.4113,1.496-4.4973,2.006-5.9964,2.116-7.8245.583-.9872-.839-1.2797-.912-2.0476-.583-1.1334.547-1.1334,1.423,0,2.59.4754.547.9507,1.277,1.0238,1.642.1463.912-1.7184,1.496-11.2248,3.502-8.9214,1.898-14.479,3.393-18.0256,4.78-4.5704,1.824-5.7039,2.59-6.8008,4.852-.6581,1.314-2.0109,2.992-4.1682,5.035-8.4826,8.1-9.79887,9.851-10.20106,13.974-.21938,2.116.84095,8.136,1.35283,7.589.14625-.146.73126-1.46,1.24315-2.883c1.02376-2.627,2.44972-4.816,6.98358-10.763c2.34-3.064,2.5594-3.247,2.6691-2.335.0731.657-.6947,2.7-2.2669,5.984-2.9982,6.275-3.2176,7.88-1.2432,10.07L13.872,239l1.9012-3.977c4.2414-8.829,8.8117-13.572,18.3913-19.008.495-.265.9621-.519,1.3684-.739h.0011c.8235-.447,1.3969-.757,1.4458-.757.0366,0,0,.766-.1097,1.715l-.1828,1.678l1.4625-.183c2.4132-.328,4.022-1.35,6.3986-4.013l2.2669-2.554.4753.949c1.0969,2.116,2.4132,1.97,5.3748-.475c2.0475-1.714,3.0347-1.86,4.5338-.583.6216.511,1.17.912,1.2797.912s.4022-.584.6216-1.277c.3656-1.131,3.9488-4.78,4.3144-4.415.0732.073-.1462.657-.4387,1.277-.585,1.058-.8044,3.32-.3657,3.32.1463,0,1.2432-.51,2.5229-1.131c1.3894-.656,3.1444-2.006,4.6069-3.466c1.2797-1.277,2.4498-2.335,2.596-2.335c0,0,2.0841-4.487,2.0841-5.29s.1886-.725,0-2.736-.1886-3.011-1.6886-2.511-1.9311-1.32-1.9311-1.32Zm-1.2797,6.567l1.4625-1.35l1.4625-1.386h-1.9013c-1.0603,0-1.9378.036-1.9378.073c0,.073.2194.693.4753,1.386l.4388,1.277Zm-7.203,2.335c.4388-.73.8044-1.423.8044-1.569c0-.255-1.7916-.255-2.4863.037-.4022.146-.3656.292.0366.802.2925.329.6216.912.6947,1.314.1097.62.2559.547.9506-.584Zm-9.3601,3.32c.0731.256.3656.146.8044-.328.6947-.766.4387-1.022-.4753-.438-.256.182-.4388.511-.3291.766Zm-8.9214,3.138c.6216-.329,1.17-.693,1.17-.766c0-.11-.7312-.183-1.6088-.183-1.2431,0-1.6819.146-1.8281.62-.0354.177-.1052.431-.1802.704-.0798.29-.1655.602-.222.865l-.2559.912.8409-.766c.4753-.438,1.426-1.058,2.0841-1.386ZM23.8171,217.474c1.1335-.511,6.0329-4.524,9.5064-7.735.2194-.219.2194-.292,0-.292l-.0961.017h-.0017l-.1132.019c-.295.049-.7733.127-1.2515.183-4.8629.548-7.9342,1.715-9.7623,3.649-1.0238,1.058-2.1207,3.283-2.1207,4.305c0,.766,2.011.693,3.8391-.146Z" transform="translate(-39.237345,-215.540497)" clip-rule="evenodd" fill-rule="evenodd"/></g></g><g id="ebwytp4YIdu16_tr" transform="translate(121.593,176.729675) rotate(55.998609)"><path d="M110.473,170.759c-11.3715,2.517-22.4135,5.692-30.5671,8.72l-3.51,1.313-2.3401-.547c-5.521-1.277-8.7385-.182-8.7385,3.028c0,.839.2193,1.168,1.0969,1.533c2.3034.948,4.0219,3.867,4.0219,6.932v1.277c0,0,.4311,1.819,1.9311,1.319c1.4165-.472,1.4954.394,1.6586,2.185.0096.106.0195.214.03.326.1284,1.369.082,1.77.0393,2.14-.02.174-.0393.34-.0393.597c0,.802-2.0841,5.29-2.0841,5.29.3291,0-.7312,2.153-3.1444,6.385-.9141,1.605-1.6819,3.32-1.6819,3.867c0,1.313.4022,3.247.6947,3.247.1097,0,1.0603-1.094,2.0475-2.444c2.596-3.43,8.1536-8.939,12.4315-12.369c7.6417-6.056,16.5631-11.346,30.8589-18.315l9.324-4.56c0,0,0-3.685,2.998-7.151c0,0,1.58-3.963,0-5.463-1.194-1.133-7.232.557-11.571,1.772-1.404.393-2.629.736-3.456.918Zm-8.41,14.411c10.53-5.18,19.196-10.033,19.196-10.762c0-.183-.695-.219-1.28,0-2.23.802-26.691,7.369-29.9085,8.026-5.6673,1.204-11.1152,2.007-13.6015,2.007-1.7916,0-2.011.073-2.011.729c0,1.204,1.7916,9.596,2.5594,12.186l.7679,2.408l2.6325-2.152c4.3144-3.539,8.5558-5.984,21.6452-12.442Z" transform="translate(-121.592999,-176.729675)" clip-rule="evenodd" fill-rule="evenodd"/></g><g id="ebwytp4YIdu17_tr" transform="translate(137.026962,121.715672) rotate(0)"><path d="M126.595,72.471l-.658-.8756c-.585-.7297-.804-.8027-1.499-.4378-.914.5108-.695,1.1675.804,2.4809.512.4013,1.499,1.8242,2.194,3.1012c2.413,4.3051,3.766,9.0846,7.057,24.5543c1.353,6.384,2.888,11.711,4.387,15.068l.841,1.933-1.17.694c-.658.401-1.426.729-1.718.693-.329,0-1.426-1.824-2.816-4.634-2.267-4.67-5.85-10.398-8.592-13.645l-1.499-1.7876l1.17-1.204c2.047-2.1161,1.572-3.539-2.852-8.3914-1.426-1.5688-2.559-2.9187-2.486-3.0282.073-.073.585.0365,1.133.2554.549.1824,1.719.3648,2.596.3648c1.463,0,1.646-.1094,1.865-.9486.585-2.262-.073-6.0929-1.645-9.7778-1.792-4.1227-1.902-5.1443-.805-6.8955l.768-1.277-1.097-.4378c-.585-.2554-1.28-.6932-1.499-.9851-.768-.9121-3.181-1.9336-4.534-1.9336h-1.28v1.7147c0,2.5904.878,5.7646,2.56,9.3035.804,1.7513,1.718,3.8674,2.011,4.7065l.548,1.4959-1.206-.2189c-3.583-.6567-5.375-.6932-6.289-.073-.512.3284-1.134,1.0216-1.353,1.4959-.548,1.204.585,3.0282,4.607,7.4793c1.718,1.8972,3.144,3.5754,3.144,3.7214c0,.1824-.329.2919-.731.2919-.987,0-3.291,1.131-3.291,1.6417c0,.8027,2.816,4.7425,5.741,8.0635c5.155,5.874,6.216,7.588,9.433,15.323.437,1.048.713,2.151.967,3.167.476,1.902.874,3.495,2.108,3.838.899.25,1.17-.408,1.507-1.225.372-.903.824-2,2.292-2.277.697-.132,1.099-.138,1.364-.142.179-.003.295-.005.396-.044.186-.072.322-.27.707-.828.341-.494.876-1.269,1.811-2.489c3.426-4.469.914-6.166.914-6.166-.025-.025-.322-1.662-.752-4.032-.201-1.105-.43-2.369-.674-3.703-.768-4.232-2.267-12.0758-3.327-17.512-1.097-5.3997-1.865-9.9602-1.792-10.0697.073-.1459.695-.4013,1.353-.5473c2.23-.4743,3.547-1.3134,3.547-2.262c0-1.4594-.695-2.2255-2.377-2.6634-1.37-.3356-2.162-.5107-1.761-.8756c0,0-2.224-.8756-5.369.8756-3.145,1.7513-4.753-.8756-4.753-.8756Zm4.79,4.5971c.402.8026.841.6567,1.426-.4379.402-.7297.219-.8026-1.17-.4378-.512.146-.585.2919-.256.8757Z" transform="translate(-137.026948,-121.715672)" clip-rule="evenodd" fill-rule="evenodd"/></g><g id="ebwytp4YIdu18_to" transform="translate(141.196018,38.794261)"><g id="ebwytp4YIdu18_tr" transform="rotate(-1.476103)"><path d="M142.94,5.20127c-3.254,3.68493-6.07,8.79273-7.788,14.26543-2.194,6.932-3.328,14.7397-4.607,31.8144-.402,5.3267-.987,11.3831-1.28,13.4627-.366,2.3715-.439,3.9403-.219,4.1957.219.2554-.147.9486-1.097,2.0431l-1.426,1.6418c0,0,1.608,2.6269,4.753.8756c3.144-1.7512,5.369-.8756,5.369-.8756.294-.2671.375-.2783.599-.3093.082-.0114.183-.0254.321-.0555c1.755-.4014,2.706-1.1311,3.766-2.9188.512-.8756.914-1.6783.914-1.7877c0-.1095-.987-.2189-2.194-.2189-2.523,0-2.559-.3284-.329-2.0067c1.536-1.1675,3.254-3.6484,3.254-4.7065c0-.3283-.146-.5472-.292-.4378-.183.1095-1.097.073-2.121-.0729l-1.792-.2554l2.889-1.7877c3.217-2.0067,4.058-3.2472,3.437-5.0349-.329-.8756-.549-1.0216-1.865-1.0216h-1.462l.219-4.67c.731-14.9221,5.375-28.6402,12.907-37.87075c1.06-1.31344,1.17-1.60532.731-2.18907-.475-.62023-.548-.62023-2.084.03649-2.34,1.05804-6.728,5.58213-10.018,10.39803-1.573,2.2985-2.925,3.9768-3.035,3.7214-.402-1.2404.914-4.4146,3.144-7.6982c2.633-3.90381,3.364-5.36319,3.364-6.85905c0-1.24046-1.243-3.39304-1.974-3.39304-.293,0-1.207.76617-2.084,1.71476ZM132.702,70.9461c.878-.3283,1.06-.5108.695-.7297-.914-.6202-2.121-.3648-2.121.4014v.0864.0254c-.001.2821-.002.4512.081.524.125.1088.438.002,1.219-.2645l.126-.043Zm4.936-15.5788c-.439.8027-1.718,2.1161-2.048,2.1161-.146,0-.292-.3284-.292-.7297c0-.5108.402-.9486,1.207-1.277c1.462-.6567,1.462-.6567,1.133-.1094Zm-1.389-6.7496c.438-.4378,1.974-12.879,1.974-16.0531c0-3.5025,0-3.539-.877-3.539-.805,0-.915.1824-1.317,3.1741-.731,5.0713-.548,17.2206.22,16.418Z" transform="translate(-141.196018,-38.794261)" clip-rule="evenodd" fill-rule="evenodd"/></g></g></g><clipPath id="ebwytp4YIdu19"><rect width="400" height="467" rx="0" ry="0" fill="#fff"/></clipPath></g></svg>
